<?xml version="1.0" encoding="utf-8"?>
<!-- Generator: Adobe Illustrator 19.2.0, SVG Export Plug-In . SVG Version: 6.00 Build 0)  -->
<svg version="1.1" id="Layer_1" xmlns="http://www.w3.org/2000/svg" xmlns:xlink="http://www.w3.org/1999/xlink" x="0px" y="0px"
	 viewBox="0 0 595.3 283.5" style="enable-background:new 0 0 595.3 283.5;" xml:space="preserve">
<style type="text/css">
	.st0{fill:#FFEDD2;}
	.st1{fill:#D9ADA0;}
	.st2{fill:#231F20;}
	.st3{fill:url(#SVGID_1_);}
	.st4{fill:url(#SVGID_2_);}
	.st5{fill:#131210;}
	.st6{fill:#EFA3A4;}
	.st7{fill:none;stroke:#010101;stroke-width:0.3427;stroke-miterlimit:10;}
	.st8{fill:none;stroke:#FFFFFF;stroke-width:2.285;stroke-linecap:round;stroke-linejoin:round;stroke-miterlimit:10;}
	.st9{fill:url(#SVGID_3_);}
	.st10{fill:url(#SVGID_4_);}
	.st11{fill:url(#SVGID_5_);}
	.st12{fill:url(#SVGID_6_);}
</style>
<g>
	<path class="st0" d="M224.4,11.8c0,0-7,38.9,6.3,44.4s30-13.8,30-13.8l8-19.9C268.8,22.6,262,7.6,224.4,11.8z"/>
	<path class="st0" d="M373.6,11.8c0,0,7,38.9-6.3,44.4c-13.3,5.5-30-13.8-30-13.8l-8-19.9C329.2,22.6,336,7.6,373.6,11.8z"/>
	<path class="st1" d="M232.2,19.4c0,0-6.4,23.8-1.2,32.9s21.1-9.4,21.1-9.4l13-14v-5.8C265.1,23.1,244.5,15.3,232.2,19.4z"/>
	<path class="st1" d="M366.4,19.4c0,0,6.2,23.8,1.2,32.9S347,42.9,347,42.9l-12.7-14v-5.8C334.2,23.1,354.3,15.3,366.4,19.4z"/>
	<path class="st0" d="M404.6,219.2l-96.7,22.2l-114.5-37.7c0,0,9.1-52.3,44.1-77.3c-11.9-11.7-19.1-26.8-19.1-43.3
		c0-36.9,35.8-66.8,80-66.8s80,29.9,80,66.8c0,16.4-7.1,31.5-18.9,43.1C369.3,132.9,400.8,159.4,404.6,219.2z"/>
	<path class="st2" d="M482.4,156.5"/>
	
		<linearGradient id="SVGID_1_" gradientUnits="userSpaceOnUse" x1="14.0939" y1="330.8167" x2="51.1094" y2="330.8167" gradientTransform="matrix(0.7071 -0.7071 0.7071 0.7071 13.5925 -141.0551)">
		<stop  offset="0" style="stop-color:#41718F"/>
		<stop  offset="0.1303" style="stop-color:#3D6A86"/>
		<stop  offset="0.3455" style="stop-color:#31566D"/>
		<stop  offset="0.6188" style="stop-color:#1F3644"/>
		<stop  offset="0.9368" style="stop-color:#050A0C"/>
		<stop  offset="1" style="stop-color:#000000"/>
	</linearGradient>
	<circle class="st3" cx="270.6" cy="69.8" r="18.5"/>
	
		<linearGradient id="SVGID_2_" gradientUnits="userSpaceOnUse" x1="-507.0283" y1="258.3123" x2="-470.0129" y2="258.3123" gradientTransform="matrix(-0.4504 -0.8928 0.8928 -0.4504 -123.6667 -249.994)">
		<stop  offset="0" style="stop-color:#41718F"/>
		<stop  offset="0.1303" style="stop-color:#3D6A86"/>
		<stop  offset="0.3455" style="stop-color:#31566D"/>
		<stop  offset="0.6188" style="stop-color:#1F3644"/>
		<stop  offset="0.9368" style="stop-color:#050A0C"/>
		<stop  offset="1" style="stop-color:#000000"/>
	</linearGradient>
	<circle class="st4" cx="327" cy="69.8" r="18.5"/>
	<circle class="st5" cx="271.1" cy="68.2" r="15"/>
	<circle class="st5" cx="327" cy="68.2" r="15"/>
	<ellipse class="st6" cx="299.7" cy="96" rx="5.3" ry="4.7"/>
	<path class="st7" d="M273,103.5c-15.9-16.6-36.2-19.1-61.1-7.5"/>
	<path class="st7" d="M273.8,107.1c-21.3-11.4-41.9-9.6-61.9,4.1"/>
	<path class="st7" d="M218,123.8c17.7-14.9,35.4-19.7,53.1-14.3"/>
	<path class="st7" d="M323.8,103.8c15.9-16.6,36.2-19.1,61.1-7.5"/>
	<path class="st7" d="M323,107.5c21.3-11.4,41.9-9.6,61.9,4.1"/>
	<path class="st7" d="M378.7,124.1c-17.7-14.9-35.4-19.7-53.1-14.3"/>
	<path class="st8" d="M272.2,57.9c4.3-0.7,7.1,0.9,8.7,4.3"/>
	<path class="st8" d="M326.2,57.1c-4.3-0.7-7.1,0.9-8.7,4.3"/>
</g>
<g>
	<path class="st0" d="M400.5,36c0,0-7,38.9,6.3,44.4s30-13.8,30-13.8l8-19.9C445,46.8,438.2,31.7,400.5,36z"/>
	<path class="st0" d="M549.8,36c0,0,7,38.9-6.3,44.4s-30-13.8-30-13.8l-8-19.9C505.3,46.8,512.1,31.7,549.8,36z"/>
	<path class="st1" d="M408.3,43.5c0,0-6.4,23.8-1.2,32.9s21.1-9.4,21.1-9.4l13-14v-5.8C441.2,47.2,420.6,39.4,408.3,43.5z"/>
	<path class="st1" d="M542.5,43.5c0,0,6.2,23.8,1.2,32.9S523.1,67,523.1,67l-12.7-14v-5.8C510.4,47.2,530.5,39.4,542.5,43.5z"/>
	<path class="st0" d="M580.7,243.3L484,265.5l-114.5-37.7c0,0,9.1-52.3,44.1-77.3c-11.9-11.7-19.1-26.8-19.1-43.3
		c0-36.9,35.8-66.8,80-66.8s80,29.9,80,66.8c0,16.4-7.1,31.5-18.9,43.1C545.4,157.1,577,183.5,580.7,243.3z"/>
	<path class="st2" d="M658.5,180.6"/>
	
		<linearGradient id="SVGID_3_" gradientUnits="userSpaceOnUse" x1="121.591" y1="472.4301" x2="158.6064" y2="472.4301" gradientTransform="matrix(0.7071 -0.7071 0.7071 0.7071 13.5925 -141.0551)">
		<stop  offset="0" style="stop-color:#41718F"/>
		<stop  offset="0.1303" style="stop-color:#3D6A86"/>
		<stop  offset="0.3455" style="stop-color:#31566D"/>
		<stop  offset="0.6188" style="stop-color:#1F3644"/>
		<stop  offset="0.9368" style="stop-color:#050A0C"/>
		<stop  offset="1" style="stop-color:#000000"/>
	</linearGradient>
	<circle class="st9" cx="446.7" cy="93.9" r="18.5"/>
	
		<linearGradient id="SVGID_4_" gradientUnits="userSpaceOnUse" x1="-607.9075" y1="404.7136" x2="-570.892" y2="404.7136" gradientTransform="matrix(-0.4504 -0.8928 0.8928 -0.4504 -123.6667 -249.994)">
		<stop  offset="0" style="stop-color:#41718F"/>
		<stop  offset="0.1303" style="stop-color:#3D6A86"/>
		<stop  offset="0.3455" style="stop-color:#31566D"/>
		<stop  offset="0.6188" style="stop-color:#1F3644"/>
		<stop  offset="0.9368" style="stop-color:#050A0C"/>
		<stop  offset="1" style="stop-color:#000000"/>
	</linearGradient>
	<circle class="st10" cx="503.1" cy="93.9" r="18.5"/>
	<circle class="st5" cx="447.3" cy="92.4" r="15"/>
	<circle class="st5" cx="503.1" cy="92.4" r="15"/>
	<ellipse class="st6" cx="475.9" cy="120.1" rx="5.3" ry="4.7"/>
	<path class="st7" d="M449.1,127.6c-15.9-16.6-36.2-19.1-61.1-7.5"/>
	<path class="st7" d="M449.9,131.2c-21.3-11.4-41.9-9.6-61.9,4.1"/>
	<path class="st7" d="M394.2,147.9c17.7-14.9,35.4-19.7,53.1-14.3"/>
	<path class="st7" d="M499.9,128c15.9-16.6,36.2-19.1,61.1-7.5"/>
	<path class="st7" d="M499.1,131.6c21.3-11.4,41.9-9.6,61.9,4.1"/>
	<path class="st7" d="M554.9,148.2c-17.7-14.9-35.4-19.7-53.1-14.3"/>
	<path class="st8" d="M448.4,82c4.3-0.7,7.1,0.9,8.7,4.3"/>
	<path class="st8" d="M502.4,81.2c-4.3-0.7-7.1,0.9-8.7,4.3"/>
</g>
<g>
	<path class="st0" d="M53.2,36.3c0,0-7,38.9,6.3,44.4c13.3,5.5,30-13.8,30-13.8l8-19.9C97.6,47.1,90.9,32.1,53.2,36.3z"/>
	<path class="st0" d="M202.4,36.3c0,0,7,38.9-6.3,44.4c-13.3,5.5-30-13.8-30-13.8l-8-19.9C158,47.1,164.8,32.1,202.4,36.3z"/>
	<path class="st1" d="M61,43.9c0,0-6.4,23.8-1.2,32.9s21.1-9.4,21.1-9.4l13-14v-5.8C93.9,47.6,73.3,39.8,61,43.9z"/>
	<path class="st1" d="M195.2,43.9c0,0,6.2,23.8,1.2,32.9s-20.6-9.4-20.6-9.4l-12.7-14v-5.8C163.1,47.6,183.2,39.8,195.2,43.9z"/>
	<path class="st0" d="M233.4,243.6l-96.7,22.2L22.2,228.1c0,0,9.1-52.3,44.1-77.3c-11.9-11.7-19.1-26.8-19.1-43.3
		c0-36.9,35.8-66.8,80-66.8s80,29.9,80,66.8c0,16.4-7.1,31.5-18.9,43.1C198.1,157.4,229.7,183.8,233.4,243.6z"/>
	<path class="st2" d="M311.2,180.9"/>
	
		<linearGradient id="SVGID_5_" gradientUnits="userSpaceOnUse" x1="-124.2363" y1="227.0791" x2="-87.2209" y2="227.0791" gradientTransform="matrix(0.7071 -0.7071 0.7071 0.7071 13.5925 -141.0551)">
		<stop  offset="0" style="stop-color:#41718F"/>
		<stop  offset="0.1303" style="stop-color:#3D6A86"/>
		<stop  offset="0.3455" style="stop-color:#31566D"/>
		<stop  offset="0.6188" style="stop-color:#1F3644"/>
		<stop  offset="0.9368" style="stop-color:#050A0C"/>
		<stop  offset="1" style="stop-color:#000000"/>
	</linearGradient>
	<circle class="st11" cx="99.4" cy="94.3" r="18.5"/>
	
		<linearGradient id="SVGID_6_" gradientUnits="userSpaceOnUse" x1="-451.7692" y1="94.4734" x2="-414.7538" y2="94.4734" gradientTransform="matrix(-0.4504 -0.8928 0.8928 -0.4504 -123.6667 -249.994)">
		<stop  offset="0" style="stop-color:#41718F"/>
		<stop  offset="0.1303" style="stop-color:#3D6A86"/>
		<stop  offset="0.3455" style="stop-color:#31566D"/>
		<stop  offset="0.6188" style="stop-color:#1F3644"/>
		<stop  offset="0.9368" style="stop-color:#050A0C"/>
		<stop  offset="1" style="stop-color:#000000"/>
	</linearGradient>
	<circle class="st12" cx="155.8" cy="94.3" r="18.5"/>
	<circle class="st5" cx="100" cy="92.7" r="15"/>
	<circle class="st5" cx="155.8" cy="92.7" r="15"/>
	<ellipse class="st6" cx="128.6" cy="120.5" rx="5.3" ry="4.7"/>
	<path class="st7" d="M101.8,128c-15.9-16.6-36.2-19.1-61.1-7.5"/>
	<path class="st7" d="M102.6,131.6c-21.3-11.4-41.9-9.6-61.9,4.1"/>
	<path class="st7" d="M46.9,148.2c17.7-14.9,35.4-19.7,53.1-14.3"/>
	<path class="st7" d="M152.6,128.3c15.9-16.6,36.2-19.1,61.1-7.5"/>
	<path class="st7" d="M151.8,131.9c21.3-11.4,41.9-9.6,61.9,4.1"/>
	<path class="st7" d="M207.6,148.6c-17.7-14.9-35.4-19.7-53.1-14.3"/>
	<path class="st8" d="M101,82.3c4.3-0.7,7.1,0.9,8.7,4.3"/>
	<path class="st8" d="M155,81.5c-4.3-0.7-7.1,0.9-8.7,4.3"/>
</g>
</svg>
