<?xml version="1.0" encoding="utf-8"?>
<!-- Generator: Adobe Illustrator 19.2.0, SVG Export Plug-In . SVG Version: 6.00 Build 0)  -->
<svg version="1.1" id="Layer_1" xmlns="http://www.w3.org/2000/svg" xmlns:xlink="http://www.w3.org/1999/xlink" x="0px" y="0px"
	 viewBox="0 0 465.8 294.7" style="enable-background:new 0 0 465.8 294.7;" xml:space="preserve">
<style type="text/css">
	.st0{fill:#FFEDD2;}
	.st1{fill:#D9ADA0;}
	.st2{fill:#231F20;}
	.st3{fill:url(#SVGID_1_);}
	.st4{fill:url(#SVGID_2_);}
	.st5{fill:#131210;}
	.st6{fill:#EFA3A4;}
	.st7{fill:none;stroke:#010101;stroke-width:0.364;stroke-miterlimit:10;}
	.st8{fill:none;stroke:#FFFFFF;stroke-width:2.4268;stroke-linecap:round;stroke-linejoin:round;stroke-miterlimit:10;}
	.st9{fill:url(#SVGID_3_);}
	.st10{fill:url(#SVGID_4_);}
</style>
<g>
	<path class="st0" d="M39.7,12.3c0,0-7.4,41.3,6.7,47.2s31.9-14.6,31.9-14.6l8.5-21.1C86.9,23.7,79.7,7.8,39.7,12.3z"/>
	<path class="st0" d="M198.2,12.3c0,0,7.4,41.3-6.7,47.2s-31.9-14.6-31.9-14.6L151,23.7C151,23.7,158.2,7.8,198.2,12.3z"/>
	<path class="st1" d="M47.9,20.3c0,0-6.8,25.3-1.3,34.9s22.4-10,22.4-10l13.8-14.9v-6.1C82.9,24.3,61,16,47.9,20.3z"/>
	<path class="st1" d="M190.5,20.3c0,0,6.6,25.3,1.3,34.9c-5.3,9.6-21.9-10-21.9-10l-13.5-14.9v-6.1C156.3,24.3,177.7,16,190.5,20.3z
		"/>
	<path class="st0" d="M231.1,232.5L128.3,256L6.8,216c0,0,9.6-55.6,46.9-82.1c-12.7-12.4-20.3-28.5-20.3-46
		c0-39.2,38-70.9,84.9-70.9s84.9,31.7,84.9,70.9c0,17.4-7.5,33.4-20.1,45.8C193.5,140.9,227.1,169,231.1,232.5z"/>
	<path class="st2" d="M313.7,165.9"/>
	
		<linearGradient id="SVGID_1_" gradientUnits="userSpaceOnUse" x1="-162.5945" y1="243.1932" x2="-123.2817" y2="243.1932" gradientTransform="matrix(0.7071 -0.7071 0.7071 0.7071 17.8279 -199.1845)">
		<stop  offset="0" style="stop-color:#41718F"/>
		<stop  offset="0.1303" style="stop-color:#3D6A86"/>
		<stop  offset="0.3455" style="stop-color:#31566D"/>
		<stop  offset="0.6188" style="stop-color:#1F3644"/>
		<stop  offset="0.9368" style="stop-color:#050A0C"/>
		<stop  offset="1" style="stop-color:#000000"/>
	</linearGradient>
	<circle class="st3" cx="88.7" cy="73.9" r="19.7"/>
	
		<linearGradient id="SVGID_2_" gradientUnits="userSpaceOnUse" x1="-560.6658" y1="108.4486" x2="-521.353" y2="108.4486" gradientTransform="matrix(-0.4504 -0.8928 0.8928 -0.4504 -191.855 -360.3221)">
		<stop  offset="0" style="stop-color:#41718F"/>
		<stop  offset="0.1303" style="stop-color:#3D6A86"/>
		<stop  offset="0.3455" style="stop-color:#31566D"/>
		<stop  offset="0.6188" style="stop-color:#1F3644"/>
		<stop  offset="0.9368" style="stop-color:#050A0C"/>
		<stop  offset="1" style="stop-color:#000000"/>
	</linearGradient>
	<circle class="st4" cx="148.7" cy="73.9" r="19.7"/>
	<circle class="st5" cx="89.3" cy="72.2" r="16"/>
	<circle class="st5" cx="148.7" cy="72.2" r="16"/>
	<ellipse class="st6" cx="119.7" cy="101.7" rx="5.6" ry="4.9"/>
	<path class="st7" d="M91.3,109.6c-16.8-17.6-38.5-20.2-64.9-8"/>
	<path class="st7" d="M92.1,113.5c-22.7-12.1-44.5-10.2-65.7,4.3"/>
	<path class="st7" d="M32.9,131.2c18.8-15.8,37.6-20.9,56.4-15.2"/>
	<path class="st7" d="M145.2,110c16.8-17.6,38.5-20.2,64.9-8"/>
	<path class="st7" d="M144.4,113.8c22.7-12.1,44.5-10.2,65.7,4.3"/>
	<path class="st7" d="M203.6,131.5c-18.8-15.8-37.6-20.9-56.4-15.2"/>
	<path class="st8" d="M90.5,61.1c4.6-0.8,7.5,0.9,9.2,4.5"/>
	<path class="st8" d="M147.8,60.3c-4.6-0.8-7.5,0.9-9.2,4.5"/>
</g>
<g>
	<path class="st0" d="M263,42.5c0,0-7.4,41.3,6.7,47.2c14.2,5.8,31.9-14.6,31.9-14.6l8.5-21.1C310.2,54,303,38,263,42.5z"/>
	<path class="st0" d="M421.5,42.5c0,0,7.4,41.3-6.7,47.2s-31.9-14.6-31.9-14.6L374.3,54C374.3,54,381.5,38,421.5,42.5z"/>
	<path class="st1" d="M271.3,50.5c0,0-6.8,25.3-1.3,34.9s22.4-10,22.4-10l13.8-14.9v-6.1C306.2,54.5,284.4,46.2,271.3,50.5z"/>
	<path class="st1" d="M413.8,50.5c0,0,6.6,25.3,1.3,34.9s-21.9-10-21.9-10l-13.5-14.9v-6.1C379.7,54.5,401,46.2,413.8,50.5z"/>
	<path class="st0" d="M454.4,262.7l-102.7,23.5l-121.6-40c0,0,9.6-55.6,46.9-82.1c-12.7-12.4-20.3-28.5-20.3-46
		c0-39.2,38-70.9,84.9-70.9s84.9,31.7,84.9,70.9c0,17.4-7.5,33.4-20.1,45.8C416.9,171.1,450.4,199.2,454.4,262.7z"/>
	<path class="st2" d="M537,196.1"/>
	
		<linearGradient id="SVGID_3_" gradientUnits="userSpaceOnUse" x1="-26.0424" y1="422.4884" x2="13.2704" y2="422.4884" gradientTransform="matrix(0.7071 -0.7071 0.7071 0.7071 17.8279 -199.1845)">
		<stop  offset="0" style="stop-color:#41718F"/>
		<stop  offset="0.1303" style="stop-color:#3D6A86"/>
		<stop  offset="0.3455" style="stop-color:#31566D"/>
		<stop  offset="0.6188" style="stop-color:#1F3644"/>
		<stop  offset="0.9368" style="stop-color:#050A0C"/>
		<stop  offset="1" style="stop-color:#000000"/>
	</linearGradient>
	<circle class="st9" cx="312.1" cy="104.1" r="19.7"/>
	
		<linearGradient id="SVGID_4_" gradientUnits="userSpaceOnUse" x1="-688.2467" y1="294.2344" x2="-648.9339" y2="294.2344" gradientTransform="matrix(-0.4504 -0.8928 0.8928 -0.4504 -191.855 -360.3221)">
		<stop  offset="0" style="stop-color:#41718F"/>
		<stop  offset="0.1303" style="stop-color:#3D6A86"/>
		<stop  offset="0.3455" style="stop-color:#31566D"/>
		<stop  offset="0.6188" style="stop-color:#1F3644"/>
		<stop  offset="0.9368" style="stop-color:#050A0C"/>
		<stop  offset="1" style="stop-color:#000000"/>
	</linearGradient>
	<circle class="st10" cx="372" cy="104.1" r="19.7"/>
	<circle class="st5" cx="312.7" cy="102.4" r="16"/>
	<circle class="st5" cx="372" cy="102.4" r="16"/>
	<ellipse class="st6" cx="343" cy="131.9" rx="5.6" ry="4.9"/>
	<path class="st7" d="M314.6,139.9c-16.8-17.6-38.5-20.2-64.9-8"/>
	<path class="st7" d="M315.5,143.7c-22.7-12.1-44.5-10.2-65.7,4.3"/>
	<path class="st7" d="M256.2,161.4c18.8-15.8,37.6-20.9,56.4-15.2"/>
	<path class="st7" d="M368.6,140.2c16.8-17.6,38.5-20.2,64.9-8"/>
	<path class="st7" d="M367.7,144.1c22.7-12.1,44.5-10.2,65.7,4.3"/>
	<path class="st7" d="M426.9,161.7c-18.8-15.8-37.6-20.9-56.4-15.2"/>
	<path class="st8" d="M313.8,91.4c4.6-0.8,7.5,0.9,9.2,4.5"/>
	<path class="st8" d="M371.1,90.5c-4.6-0.8-7.5,0.9-9.2,4.5"/>
</g>
</svg>
