<?xml version="1.0" encoding="utf-8"?>
<!-- Generator: Adobe Illustrator 19.2.0, SVG Export Plug-In . SVG Version: 6.00 Build 0)  -->
<svg version="1.1" id="Layer_1" xmlns="http://www.w3.org/2000/svg" xmlns:xlink="http://www.w3.org/1999/xlink" x="0px" y="0px"
	 viewBox="0 0 329.1 362" style="enable-background:new 0 0 329.1 362;" xml:space="preserve">
<style type="text/css">
	.st0{fill:#FFEDD2;}
	.st1{fill:#D9ADA0;}
	.st2{fill:#231F20;}
	.st3{fill:url(#SVGID_1_);}
	.st4{fill:url(#SVGID_2_);}
	.st5{fill:#131210;}
	.st6{fill:#EFA3A4;}
	.st7{fill:none;stroke:#010101;stroke-width:0.5002;stroke-miterlimit:10;}
	.st8{fill:none;stroke:#FFFFFF;stroke-width:3.3346;stroke-linecap:round;stroke-linejoin:round;stroke-miterlimit:10;}
</style>
<g>
	<path class="st0" d="M59,9.4c0,0-10.2,56.8,9.3,64.8s43.8-20.1,43.8-20.1l11.7-29C123.8,25.2,113.9,3.2,59,9.4z"/>
	<path class="st0" d="M276.7,9.4c0,0,10.2,56.8-9.3,64.8s-43.8-20.1-43.8-20.1l-11.7-29C211.9,25.2,221.8,3.2,276.7,9.4z"/>
	<path class="st1" d="M70.3,20.5c0,0-9.3,34.7-1.8,48s30.8-13.8,30.8-13.8l19-20.4v-8.4C118.3,25.9,88.3,14.5,70.3,20.5z"/>
	<path class="st1" d="M266.2,20.5c0,0,9.1,34.7,1.8,48s-30.1-13.8-30.1-13.8l-18.6-20.4v-8.4C219.3,25.9,248.6,14.5,266.2,20.5z"/>
	<path class="st0" d="M321.9,312l-141.2,32.3l-167-55c0,0,13.2-76.4,64.4-112.8c-17.4-17-27.9-39.1-27.9-63.3
		c0-53.8,52.3-97.4,116.7-97.4s116.7,43.6,116.7,97.4c0,24-10.4,46-27.6,62.9C270.4,186.1,316.5,224.7,321.9,312z"/>
	<path class="st2" d="M435.5,220.5"/>
	
		<linearGradient id="SVGID_1_" gradientUnits="userSpaceOnUse" x1="43.7152" y1="403.1132" x2="97.7341" y2="403.1132" gradientTransform="matrix(0.7071 -0.7071 0.7071 0.7071 -208.6998 -141.0074)">
		<stop  offset="0" style="stop-color:#41718F"/>
		<stop  offset="0.1303" style="stop-color:#3D6A86"/>
		<stop  offset="0.3455" style="stop-color:#31566D"/>
		<stop  offset="0.6188" style="stop-color:#1F3644"/>
		<stop  offset="0.9368" style="stop-color:#050A0C"/>
		<stop  offset="1" style="stop-color:#000000"/>
	</linearGradient>
	<circle class="st3" cx="126.4" cy="94" r="27"/>
	
		<linearGradient id="SVGID_2_" gradientUnits="userSpaceOnUse" x1="-405.4002" y1="630.2032" x2="-351.3813" y2="630.2032" gradientTransform="matrix(-0.4504 -0.8928 0.8928 -0.4504 -524.3831 40.0519)">
		<stop  offset="0" style="stop-color:#41718F"/>
		<stop  offset="0.1303" style="stop-color:#3D6A86"/>
		<stop  offset="0.3455" style="stop-color:#31566D"/>
		<stop  offset="0.6188" style="stop-color:#1F3644"/>
		<stop  offset="0.9368" style="stop-color:#050A0C"/>
		<stop  offset="1" style="stop-color:#000000"/>
	</linearGradient>
	<circle class="st4" cx="208.7" cy="94" r="27"/>
	<circle class="st5" cx="127.2" cy="91.7" r="21.9"/>
	<circle class="st5" cx="208.7" cy="91.7" r="21.9"/>
	<ellipse class="st6" cx="168.9" cy="132.2" rx="7.7" ry="6.8"/>
	<path class="st7" d="M129.9,143.2C106.7,119,77,115.4,40.7,132.2"/>
	<path class="st7" d="M131,148.5c-31.1-16.6-61.2-14-90.3,6"/>
	<path class="st7" d="M49.7,172.8c25.8-21.8,51.7-28.7,77.5-20.9"/>
	<path class="st7" d="M204,143.7c23.1-24.2,52.9-27.8,89.2-10.9"/>
	<path class="st7" d="M202.9,149c31.1-16.6,61.2-14,90.3,6"/>
	<path class="st7" d="M284.2,173.3c-25.8-21.8-51.7-28.7-77.5-20.9"/>
	<path class="st8" d="M128.8,76.6c6.3-1,10.4,1.3,12.7,6.2"/>
	<path class="st8" d="M207.5,75.4c-6.3-1-10.4,1.3-12.7,6.2"/>
</g>
</svg>
