<?xml version="1.0" encoding="utf-8"?>
<!-- Generator: Adobe Illustrator 19.2.0, SVG Export Plug-In . SVG Version: 6.00 Build 0)  -->
<svg version="1.1" xmlns="http://www.w3.org/2000/svg" xmlns:xlink="http://www.w3.org/1999/xlink" x="0px" y="0px"
	 viewBox="0 0 595.3 519.1" style="enable-background:new 0 0 595.3 519.1;" xml:space="preserve">
<style type="text/css">
	.st0{fill:none;}
	.st1{fill:#244D58;}
	.st2{fill:#D9ADA0;}
	.st3{fill:url(#SVGID_1_);}
	.st4{fill:url(#SVGID_2_);}
	.st5{fill:#131210;}
	.st6{fill:#EFA3A4;}
	.st7{fill:none;stroke:#FFEDD2;stroke-width:0.1906;stroke-miterlimit:10;}
	.st8{fill:none;stroke:#FFFFFF;stroke-width:1.2707;stroke-linecap:round;stroke-linejoin:round;stroke-miterlimit:10;}
	.st9{fill:#2D5E6A;}
	.st10{fill:#FDCBA7;}
	.st11{fill:#0C2428;}
	.st12{fill:none;stroke:#D17A78;stroke-width:1.6685;stroke-linecap:round;stroke-linejoin:round;stroke-miterlimit:10;}
	.st13{fill:#D17A78;}
	.st14{fill:none;stroke:#523030;stroke-width:1.6685;stroke-linecap:round;stroke-linejoin:round;stroke-miterlimit:10;}
	.st15{clip-path:url(#XMLID_3_);fill:#010101;}
	.st16{fill:none;stroke:#010101;stroke-width:1.3002;stroke-linecap:round;stroke-linejoin:round;stroke-miterlimit:10;}
	.st17{clip-path:url(#XMLID_7_);fill:#010101;}
	.st18{fill:#091719;}
	.st19{fill:#841B1E;}
	.st20{fill:#FFFFFF;}
	.st21{opacity:0.43;fill:#FFFFFF;}
	.st22{fill:none;stroke:#224D59;stroke-width:2.0599;stroke-miterlimit:10;}
	.st23{fill:#091825;}
	.st24{fill:#FFFAFA;}
	.st25{fill:none;stroke:#010101;stroke-width:1.6649;stroke-miterlimit:10;}
	.st26{opacity:0.5;}
	.st27{opacity:0.45;}
	.st28{fill:none;stroke:#010101;stroke-width:0.8325;stroke-miterlimit:10;}
	.st29{fill:none;stroke:#010101;stroke-width:0.748;stroke-miterlimit:10;}
	.st30{fill:none;stroke:#010101;stroke-width:0.5886;stroke-miterlimit:10;}
	.st31{fill:none;stroke:#010101;stroke-width:0.7013;stroke-miterlimit:10;}
	.st32{fill:#224D59;}
	.st33{fill:#091925;}
	.st34{fill:#FEE1C3;}
	.st35{fill:#FFEAD0;}
	.st36{fill:#EFD9D0;}
</style>
<g id="Layer_2">
	<rect x="-1" y="-148.9" class="st0" width="595.3" height="841.9"/>
</g>
<g id="Layer_1">
	<g>
		<path class="st1" d="M245.5,15.1c0,0-3.9,21.6,3.5,24.7c7.4,3.1,16.7-7.6,16.7-7.6l4.5-11.1C270.2,21.1,266.4,12.8,245.5,15.1z"/>
		<path class="st1" d="M328.4,15.2c0,0,3.9,21.7-3.5,24.7c-7.4,3.1-16.7-7.7-16.7-7.7l-4.5-11.1C303.7,21.1,307.5,12.8,328.4,15.2z"
			/>
		<path class="st2" d="M249.8,19.3c0,0-3.6,13.2-0.7,18.3s11.7-5.2,11.7-5.2l7.3-7.8l0-3.2C268.1,21.4,256.6,17,249.8,19.3z"/>
		<path class="st2" d="M324.4,19.4c0,0,3.5,13.2,0.7,18.3s-11.5-5.2-11.5-5.2l-7.1-7.8l0-3.2C306.5,21.4,317.7,17.1,324.4,19.4z"/>
		<path class="st1" d="M345.6,130.5l-53.8,12.3l-63.6-21c0,0,5.1-29.1,24.6-43c-6.6-6.5-10.6-14.9-10.6-24.1
			c0-20.5,19.9-37.1,44.5-37.1c24.6,0,44.5,16.6,44.5,37.2c0,9.1-4,17.5-10.5,24C326,82.5,343.5,97.2,345.6,130.5z"/>
		
			<linearGradient id="SVGID_1_" gradientUnits="userSpaceOnUse" x1="330.2328" y1="467.8541" x2="350.8177" y2="467.8541" gradientTransform="matrix(0.7075 -0.7067 0.7067 0.7075 -300.4378 -42.9974)">
			<stop  offset="0" style="stop-color:#FFEDD2"/>
			<stop  offset="8.485482e-02" style="stop-color:#F6E4CA"/>
			<stop  offset="0.225" style="stop-color:#DDCDB6"/>
			<stop  offset="0.4032" style="stop-color:#B4A794"/>
			<stop  offset="0.6125" style="stop-color:#7B7265"/>
			<stop  offset="0.845" style="stop-color:#34302B"/>
			<stop  offset="1" style="stop-color:#000000"/>
		</linearGradient>
		<circle class="st3" cx="271.1" cy="47.4" r="10.3"/>
		
			<linearGradient id="SVGID_2_" gradientUnits="userSpaceOnUse" x1="-183.6863" y1="815.5943" x2="-163.1014" y2="815.5943" gradientTransform="matrix(-0.4499 -0.8931 0.8931 -0.4499 -503.8957 259.4747)">
			<stop  offset="0" style="stop-color:#FFEDD2"/>
			<stop  offset="8.485482e-02" style="stop-color:#F6E4CA"/>
			<stop  offset="0.225" style="stop-color:#DDCDB6"/>
			<stop  offset="0.4032" style="stop-color:#B4A794"/>
			<stop  offset="0.6125" style="stop-color:#7B7265"/>
			<stop  offset="0.845" style="stop-color:#34302B"/>
			<stop  offset="1" style="stop-color:#000000"/>
		</linearGradient>
		<circle class="st4" cx="302.5" cy="47.4" r="10.3"/>
		<circle class="st5" cx="271.4" cy="46.5" r="8.4"/>
		<circle class="st5" cx="302.5" cy="46.5" r="8.4"/>
		<ellipse class="st6" cx="287.3" cy="61.9" rx="2.9" ry="2.6"/>
		<path class="st7" d="M272.5,66.1c-8.8-9.2-20.1-10.6-34-4.2"/>
		<path class="st7" d="M272.9,68.1c-11.9-6.3-23.3-5.3-34.4,2.3"/>
		<path class="st7" d="M241.9,77.4c9.9-8.3,19.7-10.9,29.5-7.9"/>
		<path class="st7" d="M300.7,66.3c8.8-9.2,20.2-10.6,34-4.2"/>
		<path class="st7" d="M300.3,68.3c11.9-6.3,23.3-5.3,34.4,2.3"/>
		<path class="st7" d="M331.3,77.6c-9.8-8.3-19.7-11-29.5-8"/>
		<path class="st8" d="M272,40.7c2.4-0.4,3.9,0.5,4.8,2.4"/>
		<path class="st8" d="M302.1,40.3c-2.4-0.4-3.9,0.5-4.8,2.4"/>
	</g>
	<g>
		<path class="st9" d="M433,410.7c-3.5-16.8-15.1-29.9-29.9-36c-0.9-0.6-1.9-1.1-2.9-1.4l-114.9-41.9l-104.7,42.4
			c-1.7,0.6-3.3,1.2-4.9,2l-0.2,0.1c-0.1,0-0.1,0.1-0.2,0.1c-13.6,6.5-24.1,18.9-27.3,34.8l-2.1,10.1h289L433,410.7z"/>
	</g>
	<path class="st10" d="M209.5,362.1l75.9-30.7l81.3,29.6c0,0-4.8,36.8-78.8,36.8C213.8,397.8,209.5,362.1,209.5,362.1z"/>
	<path class="st11" d="M416.4,258.2c-23-17.3-8.6-55.4-28.3-69.1c-19.7-13.7-3.9-32.3-26.2-60.1c-22.3-27.8-48.9-12.4-48.9-12.4
		L281,355.9c1.3-0.6,2.9-0.9,4.6-0.9c11.8,0.3,23.3,3,34.9,5.5c9.5,2,20.9,0.3,31.2,1.1c3.2,0.2,6.1,1.6,8.1,3.8
		c3.1-3,4.6-5.3,4.6-5.3c24.9,3.8,36.2-35.8,36.2-35.8C424.2,318.2,439.4,275.5,416.4,258.2z"/>
	<path class="st11" d="M266.9,116.7l-41.2,10.3c0,0-29.9,5.1-35.6,40.4c-5.8,35.3-3.7,27-20.1,44.9c-16.4,18,4.3,38.3-8.7,56.3
		c-6.6,9.2-9.8,16.7-10.4,25.3c-1.1,15.2,6.8,28.8,17.9,33c7.5,2.9,13.7,12.4,18.2,25.3c4.5,13,14.9,16.5,24,16.9
		c0.8-4.3,3.9-8.1,9.3-8.5c0.6-0.1,1.3-0.2,2.1-0.2c2.5,0,4.6,0.7,6.2,1.9c2.6-0.2,5.3-0.3,8-0.4c4.2-0.1,8.4-0.9,12.7-0.7
		c4.3,0.2,7.3,0.9,10.8-0.3c4.3-1.5,8.7-1.4,13.2-1.4c3,0,5.3,1.1,7,2.7C289.6,312.3,266.9,116.7,266.9,116.7z"/>
	<path class="st11" d="M319.1,117c0,0-11.4-27.8-52.3-27.8s-53.6,42.7-53.6,42.7l59.6,34.5L319.1,117z"/>
	<g>
		<g>
			<path class="st10" d="M234.3,215.8c4.1,9.1,3.7,23.8-4.9,27c-8.6,3.2-18.9-8.5-23-17.6c-4.1-9.1-1.6-17,7-20.2
				C222.1,201.8,230.2,206.7,234.3,215.8z"/>
		</g>
	</g>
	<path class="st12" d="M213.2,216c0,0,10.6-2.8,14.5,11.5"/>
	<g>
		<g>
			<path class="st10" d="M343.9,215.8c-4.1,9.1-3.7,23.8,4.9,27c8.6,3.2,18.9-8.5,23-17.6c4.1-9.1,1.6-17-7-20.2
				C356.1,201.8,347.9,206.7,343.9,215.8z"/>
		</g>
	</g>
	<path class="st12" d="M365,216c0,0-10.6-2.8-14.5,11.5"/>
	<ellipse class="st11" cx="289" cy="180.8" rx="72.7" ry="69.8"/>
	<polygon class="st10" points="268,265.8 258.9,352.9 313.1,352.9 303.7,264.9 	"/>
	<polygon class="st13" points="266.8,281.2 308.9,313.8 304.3,270 	"/>
	<g>
		<defs>
			<path id="XMLID_6_" d="M289,119.2L289,119.2c-33.6,0-63.3,26-63.3,58.1l1.9,38.5c0,0,0.7,54.6,52.5,71.2c5.7,1.8,12,1.8,17.7,0
				c51.8-16.6,52.5-71.2,52.5-71.2l1.9-38.5C352.3,145.2,322.6,119.2,289,119.2z"/>
		</defs>
		<use xlink:href="#XMLID_6_"  style="overflow:visible;fill:#FDCBA7;"/>
		<clipPath id="XMLID_2_">
			<use xlink:href="#XMLID_6_"  style="overflow:visible;"/>
		</clipPath>
	</g>
	<g>
		<polyline class="st14" points="285.3,224.3 285.3,233.2 291.9,233.3 		"/>
	</g>
	<g>
		<g>
			<defs>
				<path id="XMLID_5_" d="M274.9,211.2c0,0-4.4-11.1-15-11.6c-10.7-0.5-17,8-17,8s2.7,9.4,15.6,10
					C271.4,218.2,274.9,211.2,274.9,211.2z"/>
			</defs>
			<use xlink:href="#XMLID_5_"  style="overflow:visible;fill:#FFFFFF;"/>
			<clipPath id="XMLID_3_">
				<use xlink:href="#XMLID_5_"  style="overflow:visible;"/>
			</clipPath>
			
				<ellipse transform="matrix(4.787907e-02 -0.9989 0.9989 4.787907e-02 37.9473 457.2421)" class="st15" cx="258.8" cy="208.7" rx="10.6" ry="10.6"/>
		</g>
		<path class="st16" d="M274.9,211.2c0,0-4-11.5-15-11.6c-11-0.1-17,8-17,8"/>
	</g>
	<g>
		<g>
			<defs>
				<path id="XMLID_4_" d="M302.5,211.2c0,0,4.4-11.1,15-11.6c10.7-0.5,17,8,17,8s-2.7,9.4-15.6,10
					C306,218.2,302.5,211.2,302.5,211.2z"/>
			</defs>
			<use xlink:href="#XMLID_4_"  style="overflow:visible;fill:#FFFFFF;"/>
			<clipPath id="XMLID_7_">
				<use xlink:href="#XMLID_4_"  style="overflow:visible;"/>
			</clipPath>
			
				<ellipse transform="matrix(0.9989 -4.787894e-02 4.787894e-02 0.9989 -9.6277 15.4923)" class="st17" cx="318.6" cy="208.7" rx="10.6" ry="10.6"/>
		</g>
		<path class="st16" d="M302.5,211.2c0,0,4-11.5,15-11.6c11-0.1,17,8,17,8"/>
	</g>
	<path class="st18" d="M255.2,166.6c0,0-10.8,1.4-16,4.6c-3.2,2-3.3,6.8,0.8,7c3.4,0.2,11.4-3.3,16-3.9c11.2-1.3,18.4-1.7,17.7-5.1
		C272.7,164.8,261.1,165.5,255.2,166.6z"/>
	<path class="st18" d="M320.5,166.6c0,0,10.8,1.4,16,4.6c3.2,2,3.3,6.7-0.8,7c-3.6,0.2-10.8-2.9-15.3-3.4c-11.2-1.3-19-2.1-18.3-5.6
		C303,164.8,314.6,165.5,320.5,166.6z"/>
	<path class="st19" d="M270.4,244.1c0,0,1.9,13.6,16.5,13.6c14.5,0,16.5-13.6,16.5-13.6H270.4z"/>
	<path class="st19" d="M303.3,244.1c0,0-14.7-6.9-32.9,0C270.4,244.1,288.4,249.5,303.3,244.1z"/>
	<path class="st20" d="M270.4,244h32.9c0,0-1.1,9.7-16.5,9.7C273.2,253.7,270.4,244,270.4,244z"/>
	<path class="st11" d="M319.1,117c0,0-2.7,30.4-34.5,35.3c-32.3,4.9-25.3,25.4-64.6,20.5c0,0-14.2-22.2,6.9-45.2
		c13.9-15.2,41.2-27.9,60.7-25.7C294.1,102.5,309.7,115,319.1,117z"/>
	<path class="st11" d="M315.4,120.8c0,0-14,20.3,46.3,60c0,0,9.8-14,3.3-26.8C358.5,141.2,315.4,120.8,315.4,120.8z"/>
	<path class="st21" d="M252.1,183.2l29.4,39.9c0,0-8.9,16.9-23,15.1l-29.7-38.9C228.9,199.2,236.9,182.1,252.1,183.2z"/>
	<path class="st21" d="M319.7,183.2l29.4,39.9c0,0-8.9,16.9-23,15.1l-29.7-38.9C296.5,199.2,304.5,182.1,319.7,183.2z"/>
	<g>
		<circle class="st22" cx="255.1" cy="210.9" r="28.7"/>
		<circle class="st22" cx="322.8" cy="210.9" r="28.7"/>
		<path class="st22" d="M283.9,210.9c0,0,5.1-2.8,10.2,0"/>
	</g>
	<g>
		<rect x="89.2" y="386.1" class="st23" width="399.6" height="130.9"/>
	</g>
	<ellipse class="st20" cx="290.6" cy="482.5" rx="36" ry="30.9"/>
	<path class="st24" d="M443,385.6h-7.2c-0.4,0-0.7,0.3-0.7,0.7v130.8c0,0.4-0.3,0.7-0.7,0.7H151.5c-0.4,0-0.7-0.3-0.7-0.7V386.3
		c0-0.4-0.3-0.7-0.7-0.7h-7.2c-0.4,0-0.8-0.4-0.7-0.8c0.4-4.4,4.1-7.9,8.7-7.9h284.3c4.5,0,8.3,3.5,8.7,7.9
		C443.8,385.2,443.5,385.6,443,385.6z"/>
	<line class="st25" x1="165.4" y1="401.3" x2="416.4" y2="401.3"/>
	<line class="st25" x1="165.4" y1="417.6" x2="416.4" y2="417.6"/>
	<line class="st25" x1="165.4" y1="434" x2="416.4" y2="434"/>
	<line class="st25" x1="165.4" y1="450.3" x2="416.4" y2="450.3"/>
	<line class="st25" x1="165.4" y1="466.6" x2="416.4" y2="466.6"/>
	<line class="st25" x1="165.4" y1="483" x2="416.4" y2="483"/>
	<line class="st25" x1="165.4" y1="499.3" x2="416.4" y2="499.3"/>
	<line class="st25" x1="165.4" y1="515.7" x2="416.4" y2="515.7"/>
	<g class="st26">
		<path class="st24" d="M292.9,101.2c0,0,1.2-0.3,3.4-0.9c2.2-0.6,5.5-1.4,9.6-2.5c4.2-1,9.2-2.3,15-3.6c5.8-1.3,12.3-2.8,19.4-4.3
			c7.1-1.5,14.7-3.1,22.8-4.8c8.1-1.6,16.6-3.3,25.4-5.1c8.8-1.9,17.8-4,27-6.3c9.1-2.3,18.4-4.8,27.5-7.4
			c9.1-2.6,18.2-5.2,27.1-7.8c8.9-2.5,17.5-5.1,25.9-7.3c16.6-4.6,31.8-8.3,44.2-11.7c3.1-0.9,6-1.6,8.7-2.5
			c1.4-0.4,2.7-0.8,3.9-1.2c1.3-0.4,2.4-0.8,3.6-1c4.8-0.9,9.7,0.5,14.6,2.7c1.2,0.5,2.5,1.1,3.7,1.7c1.3,0.7,2.5,1.3,3.6,1.9
			c2.6,1.4,4.9,2.6,6.7,3.6c4.6,2.4,7.1,3.7,7.1,3.7l0.5,0.6c0,0,0.1,0.2,0.2,0.6c0.1,0.2,0.1,0.4,0.2,0.7c0.1,0.3,0.1,0.6,0.2,0.9
			c0.2,0.7,0.4,1.5,0.6,2.6c0.1,0.5,0.2,1,0.3,1.6c0.1,0.6,0.2,1.2,0.2,1.8c0,0.6,0.1,1.2,0.1,1.9c0,0.7,0,1.3,0,2
			c0,1.5-0.1,2.9-0.2,4.4c-0.1,0.8-0.2,1.5-0.3,2.3c-0.1,0.8-0.3,1.6-0.5,2.4c-0.4,1.6-0.9,3.1-1.5,4.7c-2.4,6.3-6.7,12.2-12.7,15.7
			c-1.5,0.9-3.1,1.6-4.8,2.3c-1.6,0.7-3.4,1.5-5.1,2.2c-3.5,1.4-7.1,2.8-10.9,4.1c-15.1,5.2-32.6,9.2-51.4,11.5
			c-9.4,1.1-19,1.8-28.8,2.2c-9.8,0.3-19.7,0.4-29.6,0.2c-9.9-0.2-19.7-0.4-29.4-0.8c-9.6-0.3-19.1-0.6-28.3-0.9
			c-9.1-0.3-18-0.5-26.3-0.9c-8.4-0.4-16.3-1-23.6-1.6c-7.3-0.6-14-1.4-19.9-2.1c-5.9-0.7-11.1-1.6-15.3-2.2
			c-4.2-0.7-7.6-1.3-9.8-1.8c-2.3-0.5-3.5-0.8-3.5-0.8L292.9,101.2z"/>
	</g>
	<g class="st27">
		<path class="st24" d="M166.8,253.6c0,0-1.6,0.4-4.6,1.2c-2.9,0.8-7.3,1.9-13,3.2c-2.8,0.7-6,1.4-9.4,2.2
			c-3.4,0.8-7.2,1.6-11.2,2.5c-4,0.8-8.3,1.7-13.1,2.5c-1.2,0.2-2.4,0.4-3.7,0.6c-1.3,0.2-2.7,0.3-3.8,0.5c-2.3,0.3-4.8,0.7-7.4,1
			c-2.6,0.3-5.3,0.6-8.1,0.8c-2.8,0.2-5.8,0.4-8.8,0.5c-3.1,0-6.3,0-9.7-0.3c-3.4-0.3-6.9-0.7-10.5-1.5c0,0-1-0.3-0.6-0.2l-0.1,0
			l-0.3-0.1l-0.5-0.1l-1-0.2c-0.1,0-0.4-0.1-0.7-0.2l-0.9-0.3l-1.7-0.5c-0.6-0.2-1-0.4-1.5-0.6l-1.5-0.6c-1-0.4-2-0.8-3-1.3
			c-3.9-1.8-7.8-4.2-11.3-7c-3.5-2.9-6.8-6.2-9.5-10c-0.7-0.9-1.4-1.9-2-2.9c-0.6-1-1.2-2-1.8-3c-0.5-1-1.1-2-1.6-3.1l-0.7-1.6
			l-0.4-0.8l-0.1-0.2l-0.3-0.6l-0.1-0.3l-0.4-1.1c-0.2-0.4-0.3-0.6-0.5-1.3l-0.6-1.9c-0.2-0.6-0.4-1.3-0.6-1.8
			c-0.6-2.2-1.2-4.3-1.6-6.5c-0.8-4.4-1.2-8.7-1.3-13c0-4.3,0.3-8.5,0.9-12.6c0.3-2,0.6-4.1,1.1-6.1c0.2-1,0.4-2,0.7-3l0.4-1.5
			l0.4-1.6l0.7-2.3l0.3-1.2l0.5-1.4l0.9-2.9l0.5-1.4l0.5-1.3c1.3-3.6,2.7-7.1,4.2-10.5c3.1-6.9,6.6-13.6,10.6-19.9
			c4-6.4,8.4-12.4,13.1-18.1c2.3-2.9,4.8-5.6,7.3-8.3c1.3-1.3,2.5-2.7,3.8-4l2-1.9l0.5-0.5l0.6-0.5l0.2-0.2l0.9-0.8
			c1.2-1.1,2.3-2.1,4-3.5c1.6-1.3,3.2-2.7,4.7-3.8c1.5-1.2,3-2.3,4.6-3.4c1.6-1.1,3.1-2.2,4.7-3.1c6.3-4,13-7.4,19.7-10.1
			c6.7-2.7,13.5-4.7,20.3-6.1c3.4-0.7,6.7-1.2,10-1.6c1.7-0.2,3.3-0.4,4.9-0.5c1.7-0.1,3.4-0.2,5.1-0.3c1.4,0,2.8,0,4.2,0
			c0.7,0,1.5,0,2.3,0c0.8,0,1.6,0,2.3,0c1.6,0,3,0.1,4.5,0.1c1.5,0.1,2.9,0.1,4.3,0.3c5.7,0.4,11.1,1.1,16.3,1.9
			c10.3,1.7,19.4,3.9,27.4,6.2c8,2.3,14.8,4.6,20.4,6.6c0.4,0.1,0.7,0.3,1,0.4c0.3,0.1,0.7,0.2,1,0.3c0.7,0.2,1.3,0.4,1.9,0.5
			c1.3,0.4,2.4,0.7,3.5,1c2.2,0.6,4,1.2,5.6,1.6c3,0.9,4.6,1.4,4.6,1.4l-0.1,0.8c0,0-1.7,0.1-4.8,0.4c-1.6,0.1-3.5,0.3-5.8,0.4
			c-1.1,0.1-2.4,0.1-3.6,0.2c-0.6,0-1.3,0.1-2,0.1c-0.3,0-0.7,0-1,0c-0.3,0-0.7,0.1-1.1,0.1c-5.9,0.9-13,1.7-21,2.6
			c-8,0.9-17,1.8-26.5,3.1c-4.7,0.6-9.6,1.3-14.5,2.2c-1.2,0.2-2.5,0.4-3.7,0.7c-1.2,0.2-2.5,0.4-3.7,0.7c-2.6,0.5-5.2,1.1-7.8,1.7
			c-0.2,0,0.2,0,0.1,0l-0.1,0l-0.2,0.1L150,109l-0.9,0.2c-0.6,0.2-1.2,0.3-1.8,0.5c-1.2,0.3-2.4,0.7-3.6,1c-2.4,0.7-4.8,1.5-7.1,2.4
			c-4.7,1.8-9.4,3.9-13.9,6.3c-4.5,2.4-8.9,5.2-13.1,8.2c-1.1,0.7-2.1,1.6-3.1,2.4c-1,0.8-2,1.6-3,2.5c-1.1,0.9-1.9,1.6-2.7,2.4
			l-0.6,0.6c-0.2,0.2-0.5,0.5-0.8,0.7l-1.7,1.7l-0.9,0.9l-0.2,0.2c-0.1,0.1,0.5-0.5,0.2-0.2l-0.1,0.1l-0.4,0.4l-1.5,1.5
			c-1,1-1.9,2.1-2.9,3.2c-1.9,2.1-3.7,4.3-5.5,6.6c-3.6,4.5-6.9,9.2-9.9,14c-3,4.8-5.7,9.8-8,14.9c-1.2,2.5-2.3,5.1-3.2,7.7l-0.4,1
			l-0.3,0.9l-0.6,1.7l-0.3,0.9l-0.4,1.2l-0.7,2.3l-0.2,0.6l-0.1,0.3l0,0.1c0-0.1-0.1,0.5,0.1-0.2l-0.2,0.9c-0.2,0.6-0.3,1.2-0.5,1.7
			c-0.3,1.2-0.6,2.3-0.8,3.4c-0.4,2.3-0.7,4.4-0.8,6.5c-0.1,2.1,0,4,0.2,5.9c0.1,0.9,0.2,1.8,0.4,2.6c0,0.3,0.1,0.3,0.1,0.5
			c0,0.1,0,0.2,0.1,0.4c0,0,0.2,0.5,0.3,0.9l0.4,1.1l0.1,0.3c-0.1-0.2,0.2,0.6-0.2-0.4l0,0.1l0.1,0.3l0.2,0.6
			c0.1,0.4,0.3,0.7,0.4,1.1c0.1,0.4,0.3,0.7,0.5,1l0.5,1c0.7,1.3,1.6,2.4,2.5,3.4c1,1,2.1,2,3.3,2.8c0.3,0.2,0.6,0.4,1,0.6l1,0.5
			c0.1,0.1,0.2,0.1,0.3,0.2l0.2,0.1c0,0,0.1,0.1,0.3,0.1l1,0.4l0.5,0.2l0.3,0.1l0.1,0c0.5,0.1-0.5-0.1-0.4-0.1
			c3.7,1.3,7.9,2.3,12.5,2.8c4.5,0.6,9.2,0.9,13.9,1c2.4,0.1,4.8,0.2,7.1,0.2c1.3,0.1,2.2,0,3.2,0c1,0,2.1,0,3.1,0
			c4.2-0.1,8.4-0.3,12.3-0.5c8-0.5,14.9-0.9,20.6-1.2c5.8-0.3,10.3-0.6,13.5-0.7c3.1-0.1,4.8-0.2,4.8-0.2L166.8,253.6z"/>
	</g>
	<g class="st27">
		<path class="st24" d="M12,514.6c0,0-0.2-0.8-0.5-2.5c-0.2-0.8-0.4-1.8-0.6-3c-0.2-1.2-0.5-2.6-0.7-4.2c-0.2-1.6-0.5-3.4-0.7-5.3
			c-0.2-2-0.4-4.1-0.6-6.5C8.5,488.4,8.5,483,9,477c0.5-6,1.6-12.6,3.7-19.6c2.1-7,5.2-14.3,9.8-21.4c0.6-1,1.2-1.8,1.8-2.6
			c0.6-0.9,1.2-1.8,1.9-2.6c1.3-1.7,2.7-3.5,4.1-5.2c2.9-3.4,6.1-6.7,9.6-10c7-6.4,15-12.3,23.9-17.7c4.4-2.7,9.1-5.3,13.9-7.7
			c2.4-1.2,4.8-2.4,7.3-3.6c2.5-1.1,5-2.3,7.5-3.4c5.1-2.2,10.4-4.4,15.8-6.4c5.4-2,10.9-3.9,16.6-5.7c11.3-3.6,23.1-6.7,35.2-9.6
			c6-1.4,12.2-2.8,18.4-4c6.3-1.3,12.5-2.4,18.9-3.5c25.5-4.4,52.2-7.3,79.4-8.6c27.2-1.3,54.7-1.5,82.1-1.8
			c27.4-0.3,54.5-0.9,80.6-4.2c1.6-0.2,3.3-0.4,4.9-0.7c1.6-0.2,3.2-0.5,4.8-0.7c1.6-0.3,3.2-0.5,4.8-0.8c1.6-0.3,3.1-0.6,4.7-0.8
			c1.6-0.3,3.3-0.6,4.9-1c1.5-0.3,3.1-0.7,4.6-1c1.5-0.4,3.1-0.7,4.6-1.1c1.5-0.4,3-0.8,4.6-1.2c12.1-3.3,23.6-7.7,34-13.2
			c5.2-2.8,10.1-5.8,14.7-9.2c1.1-0.9,2.3-1.7,3.4-2.6l1.7-1.4l1.5-1.3c2.1-1.8,4.1-3.7,5.9-5.6c7.5-7.7,13.2-16.6,15.3-24.7
			c1.1-4,1.2-7.8,0.6-11.2l-0.3-1.3c-0.1-0.4-0.2-0.8-0.3-1.3l-0.4-1.2l0-0.2c0.4,1.1,0,0.2,0.1,0.4l-0.2-0.5l-0.4-1
			c-0.3-0.9-0.4-0.7-0.5-0.9c0-0.1-0.1-0.1-0.1-0.2l-0.3-0.4c-0.3-0.6-0.8-1.2-1.2-1.7c-1.8-2.3-4.6-4.3-7.9-6.2
			c-1.7-0.9-3.5-1.7-5.4-2.5c-0.5-0.2-0.9-0.4-1.5-0.5l-1.3-0.5c-1.2-0.4-2.6-0.9-3.5-1.1c-0.9-0.3-2.1-0.6-3.1-0.9
			c-1.1-0.3-2.2-0.6-3.3-0.8c-2.2-0.5-4.4-1-6.5-1.4c-4.4-0.8-8.8-1.5-13.1-2.1c-2.2-0.3-4.3-0.5-6.5-0.7c-0.5-0.1-1.1-0.1-1.6-0.2
			c-0.5,0-1-0.1-1.5-0.1c-1.1-0.1-2.2-0.2-3.3-0.3c-0.5,0-1.1-0.1-1.6-0.1c-0.5,0-1-0.1-1.5-0.1c-1-0.1-2-0.1-2.9-0.2
			c-2-0.1-4-0.2-6-0.3c-15.8-0.5-30.1,0-42,0.4c-6,0.2-11.4,0.4-16.1,0.6c-4.7,0.1-8.7,0.2-11.9,0.3c-3.1,0.1-5.2,0.2-6.6,0.3
			c-1.3,0.1-2,0.2-2,0.2l-2.1-41.3c0,0,1,0,3,0c1.9,0,4.7,0.1,8.1,0.2c3.2,0.1,7.1,0.3,11.7,0.5c4.6,0.2,10,0.3,15.9,0.6
			c12,0.4,27,0.7,44.5,2.4c2.2,0.2,4.4,0.5,6.7,0.7c1.2,0.1,2.4,0.3,3.5,0.4c0.6,0.1,1.2,0.2,1.8,0.2c0.6,0.1,1.1,0.2,1.7,0.2
			c1.1,0.2,2.2,0.3,3.3,0.5c0.6,0.1,1.3,0.2,1.9,0.3c0.6,0.1,1.2,0.2,1.8,0.3c2.4,0.4,4.8,0.8,7.2,1.3c4.9,0.9,10,2,15.2,3.4
			c2.6,0.7,5.3,1.4,7.9,2.3c1.3,0.4,2.7,0.9,4,1.3c1.3,0.5,2.7,0.9,4.2,1.5c1.6,0.6,2.6,1,3.8,1.5c0.8,0.3,1.5,0.6,2.3,1
			c0.7,0.3,1.4,0.7,2.2,1c2.9,1.4,5.8,2.9,8.7,4.7c5.8,3.7,11.8,8.5,16.5,15.2c1.2,1.7,2.3,3.4,3.2,5.3l0.7,1.4l0.7,1.7
			c0.5,1.1,1,2.5,1.1,3l0.3,1l0.2,0.5l0.3,0.9l0.1,0.4c0.2,1,0.5,1.9,0.7,2.9c0.2,1,0.4,1.9,0.6,2.9c0.2,1,0.3,2,0.4,3
			c0.8,7.9-0.3,16-2.7,23.2c-2.4,7.2-6,13.7-10.1,19.5c-4.2,5.8-8.9,11-14,15.8c-2.6,2.4-5.2,4.6-8,6.8l-2.2,1.7l-2.1,1.5
			c-1.4,1-2.9,1.9-4.3,2.9c-5.8,3.8-11.9,7.1-18.3,10.1c-12.6,5.9-26,10.1-39.6,13.1c-1.7,0.4-3.4,0.7-5.1,1.1
			c-1.7,0.3-3.4,0.6-5.1,0.9c-1.7,0.3-3.5,0.6-5.2,0.9c-1.7,0.2-3.3,0.5-5,0.7c-1.7,0.2-3.5,0.4-5.2,0.7c-1.7,0.2-3.4,0.4-5.2,0.6
			c-1.7,0.2-3.4,0.3-5.2,0.5c-1.7,0.2-3.5,0.3-5.2,0.4c-27.6,2.1-55.4,1.3-82.9,0.3c-27.4-1-54.8-2.3-81.5-2.2
			c-26.8,0.1-53.1,1.7-78.5,4.9c-6.3,0.8-12.6,1.7-18.8,2.6c-6.2,1-12.3,2-18.4,3.2c-12.1,2.3-23.8,4.9-35.1,8.1
			c-5.6,1.5-11.2,3.2-16.6,5c-5.4,1.8-10.7,3.7-15.8,5.7c-2.5,1-5.1,2.1-7.6,3.1c-2.5,1.1-4.9,2.2-7.3,3.3
			c-4.8,2.3-9.5,4.6-13.9,7.1c-8.9,5-16.9,10.6-23.9,16.7c-3.5,3.1-6.7,6.2-9.6,9.5c-1.5,1.6-2.8,3.3-4.1,5
			c-0.7,0.8-1.3,1.7-1.9,2.6c-0.6,0.9-1.3,1.7-1.8,2.6c-4.6,6.9-7.8,14-10,20.9c-2.2,6.9-3.3,13.4-3.8,19.3
			C9.5,483,9.4,488.4,9.7,493c0.1,2.3,0.3,4.5,0.5,6.4c0.3,2,0.5,3.7,0.7,5.3c0.3,1.6,0.5,3,0.7,4.2c0.2,1.2,0.5,2.2,0.6,3
			c0.4,1.6,0.5,2.5,0.5,2.5L12,514.6z"/>
	</g>
	<path class="st10" d="M215.8,367.5c6.9-0.7,14-0.5,20.9-1c6.8-0.6,13.6-1.1,20.5-1.6c6.8-0.5,13.7-0.8,20.6-0.8
		c6.6,0,13,1.2,19.6,1.3c4.7,0.1,7.8,2.6,9.3,5.9c0.8-0.1,1.6-0.2,2.4-0.3c6.9-0.9,13.7-2.1,20.6-2.5c10.8-0.6,22.9-2.2,33.4,1.4
		c3.1-5.1,3.6-8.9,3.6-8.9l-81.3-29.6l-75.9,30.7c0,0,0.3,2.6,2.3,6.5C213,368,214.4,367.7,215.8,367.5z"/>
	<path class="st10" d="M302.4,300.4c-0.4-0.2-1.5-0.7-1.5-0.7c-0.9-0.3-1.9-0.6-2.8-0.9c-2.4-0.7-4.8-1.3-7.3-1.9
		c-8.5-2.1-17.4-4.1-25.2-8.3l-6.8,64.4h54.2l-5.2-49.3C306,302.6,304.2,301.5,302.4,300.4z"/>
	<path class="st13" d="M302.4,300.4c-0.4-0.2-1.5-0.7-1.5-0.7c-0.9-0.3-1.9-0.6-2.8-0.9c-2.4-0.7-4.8-1.3-7.3-1.9
		c-1.8-0.4-3.7-0.9-5.5-1.3l23.6,18.3l-1.1-10.2C306,302.6,304.2,301.5,302.4,300.4z"/>
	<path class="st11" d="M416.4,222.6c-23-13.1-8.6-41.8-28.3-52.2c-19.7-10.4-3.9-24.4-26.2-45.4c-22.3-21-48.9-9.4-48.9-9.4
		l-1.9,10.8c4.7,2.4,8.6,6.4,12.7,9.7c9.8,7.8,24.4,12.3,33.2,23.2c1.9,2.3,3,5,3.1,7.8c2.6,0.7,4.8,2.4,6.1,4.8
		c2.2,4.3,3.4,8.8,4,13.4c1.5,4.2,3.4,8.3,5,12.5c3.4,8.5,6,17.5,8.2,26.4c1.2,4.7-0.7,8.7-3.8,11.1c2,8.8,1.8,19.1-1.1,26.8
		c-1.9,5.1-5.3,9.6-9.9,12.4c-0.8,6.3-1.8,12.6-2.7,19c-0.3,2.1-0.8,4.3-1.4,6.4c24.8,2.7,36-27.1,36-27.1
		C424.2,267.9,439.3,235.7,416.4,222.6z"/>
	<path class="st11" d="M214.5,258.3c-5.3,1.5-11.5-2.6-12.7-7.7c-1.4-5.7,0.1-11.8,2.2-17.2c0.1-0.4,0.3-0.8,0.5-1.1
		c-4.3-0.5-8.5-3.4-9.2-7.8c-2-12.1-0.6-25.3,10-33c1.4-1,3-1.9,4.6-2.5c-1.8-2.6-2.6-5.8-1.4-8.7c2.1-5.1,5.1-9.6,8.8-13.4
		c0.3-1.4,0.6-2.9,0.9-4.3c5.1-20.5,19.9-40.6,42.7-40.9c1.8,0,3.5,0.1,5.2,0.2c-0.5-3.3-0.8-5.1-0.8-5.1l-41.2,7.7
		c0,0-29.9,3.9-35.6,30.4c-5.8,26.5-3.7,20.2-20.1,33.7c-16.4,13.5,4.3,28.8-8.7,42.3c-6.6,6.9-9.8,12.5-10.4,19
		c-1.1,11.4,6.8,21.6,17.9,24.8c7.5,2.1,13.7,9.3,18.2,19c5.2,11.2,18,13,27.9,12.7c-1.9-2.8-2.9-6.4-3.6-10.2
		c-1.6-8.7-0.7-17.5,1.4-26.1C212,266,213.1,262.1,214.5,258.3z"/>
	<path class="st11" d="M294.1,125.7c4-1.7,8.4-2.2,13.1-0.9c1.2,0.3,2.3,0.8,3.4,1.3l8.5-9c0,0-11.4-27.8-52.3-27.8
		c-40.9,0-53.6,42.7-53.6,42.7l15.9,9.2c7.6-11.2,18.8-19.4,33.3-19.6c5.7-0.1,11.2,1.1,16.8,1.6
		C284.2,123.6,289.2,123.9,294.1,125.7C294.1,125.7,294.1,125.7,294.1,125.7z"/>
	<path class="st28" d="M227.4,92.3c0,1.4-0.1,2.8-0.1,4.1"/>
	<path class="st28" d="M219.1,91.5c0,1.8-0.1,3.7-0.2,5.5"/>
	<path class="st28" d="M210.8,90.5c-0.1,2.4-0.1,4.7-0.2,7.1"/>
	<path class="st28" d="M201.9,88.9c0,3.1,0.1,6.2,0.2,9.2"/>
	<path class="st28" d="M193.5,87.3c0,3.7,0.1,7.4,0.2,11.1"/>
	<path class="st28" d="M185.2,85.4c0,4.4,0,8.9,0.1,13.3"/>
	<path class="st28" d="M176.8,83.8c0,5.1,0,10.1,0.1,15.2"/>
	<path class="st28" d="M168.5,82.7c0,5.5,0,11.1,0,16.6"/>
	<path class="st28" d="M160.1,81.8c0,6.3,0,12.6,0,18.9"/>
	<path class="st28" d="M151.8,81.7c0,6.7,0,13.4-0.1,20.2"/>
	<path class="st28" d="M385.1,83.4c-0.1,7.4-0.1,14.8-0.1,22.2"/>
	<path class="st28" d="M376.7,86.2c-0.1,6.5-0.1,12.9-0.1,19.4"/>
	<path class="st28" d="M368.3,88.6c0,5.5,0,11,0,16.5"/>
	<path class="st28" d="M359.9,89.7c0,5.1,0,10.2,0,15.3"/>
	<path class="st28" d="M351.5,91.3c0.1,4.3,0.1,8.6,0.1,12.8"/>
	<path class="st28" d="M343.1,93c0.1,3.6,0.1,7.1,0.1,10.7"/>
	<path class="st28" d="M334.7,94.5c0.1,3,0.2,6,0.2,8.9"/>
	<path class="st28" d="M326.3,96.5c0.1,2.1,0.2,4.3,0.2,6.4"/>
	<path class="st28" d="M317.9,98.5c0,1.3,0,2.7,0,4"/>
	<path class="st28" d="M309.5,99.7c0,1,0,1.9,0,2.9"/>
	<path class="st28" d="M143.4,81.6c0,7.5,0,15-0.1,22.5"/>
	<path class="st28" d="M135.1,81.1c0.1,8.5,0,17.1-0.2,25.6"/>
	<path class="st28" d="M125.3,82.4c1.2,9,2.5,18.1,2.7,27.2"/>
	<path class="st28" d="M115.3,86.2c1.8,9,3.3,18.1,5.8,27"/>
	<path class="st28" d="M105.2,89.2c3.3,9.2,6.8,18.3,9.3,27.7"/>
	<path class="st28" d="M96.1,95.4c3.9,8.9,7.6,17.8,12.3,26.3"/>
	<path class="st28" d="M87.8,100.6c4.9,8.5,9.9,17.1,14.8,25.6"/>
	<path class="st28" d="M77.4,107.7c6,8.4,12,16.7,18.7,24.5"/>
	<path class="st28" d="M69,114.5c6.8,8,13.5,16,20.3,24.1"/>
	<path class="st28" d="M63.4,121.6c6.8,7.9,13.7,15.6,20.1,23.8"/>
	<path class="st28" d="M55.5,132c7.1,7.8,14.1,15.6,21.2,23.3"/>
	<path class="st28" d="M47.7,142.5c7.7,7.6,15.3,15.3,22.8,23.1"/>
	<path class="st28" d="M39.9,153.3c7.9,7.7,15.8,15.5,24.3,22.6"/>
	<path class="st28" d="M150.5,238.8c0,1.7-0.1,3.5-0.1,5.2"/>
	<path class="st28" d="M144.1,238.8c0.1,6.3,0.2,12.6,0.2,19"/>
	<path class="st28" d="M137,238.8c-0.1,6.7-0.2,13.4-0.1,20.1"/>
	<path class="st28" d="M129.6,238.5c-0.2,7.1-0.2,14.2-0.2,21.3"/>
	<path class="st28" d="M122.5,238.5c0.1,7.6,0.1,15.3,0.1,22.9"/>
	<path class="st28" d="M114.9,238.5c0.2,8,0.3,16,0.2,24"/>
	<path class="st28" d="M107.3,238.3c-0.3,8.8-0.4,17.7-0.2,26.5"/>
	<path class="st28" d="M100.8,237.8c0.2,9.4,0.3,18.8,0.1,28.2"/>
	<path class="st28" d="M91.6,237.1c0.3,10,0.3,20,0.1,30.1"/>
	<path class="st28" d="M84.3,235.4c-1.2,10.4-2.6,20.7-3.5,31.1"/>
	<path class="st28" d="M79.1,233.9c-2.8,10.2-5.5,20.3-8.3,30.5"/>
	<path class="st28" d="M69,232.1c-3.1,9.1-6.7,18-10.2,26.9"/>
	<path class="st28" d="M61.4,228.3c-5.6,6.6-11.2,13.2-16.7,19.8"/>
	<path class="st28" d="M57.8,220.5c-8.9,5.1-17.8,10-26.8,15"/>
	<path class="st28" d="M55.3,209.4c-9.8,3.2-20,5-30.1,6.9"/>
	<path class="st28" d="M55.5,200.2c-10-0.8-20-2.2-30-3.3"/>
	<path class="st28" d="M57.7,190.4c-9.5-3.7-19.1-7.1-28.7-10.5"/>
	<path class="st28" d="M32.6,167.5c9.4,5.1,18.8,10.1,28,15.6"/>
	<path class="st28" d="M531.2,47.4c19.2,7.1,38.4,11.2,58,19"/>
	<path class="st29" d="M544.9,42.3c14.3,5.2,28.5,8.2,43,14"/>
	<path class="st28" d="M524.4,50.9c18.7,9.2,37,18.3,56.1,26.9"/>
	<path class="st28" d="M508.5,52.7c21.2,11.2,42.2,22.6,63.3,34"/>
	<path class="st28" d="M497.8,56.3c20,12.2,39.4,25.5,59.1,38.2"/>
	<path class="st28" d="M486.1,59c15.1,14.4,31,28,46.5,41.9"/>
	<path class="st28" d="M474,61.8c12.5,14.2,24.7,28.6,37.1,42.9"/>
	<path class="st28" d="M462.4,64c7.4,15.1,15.7,29.3,23.4,43.9"/>
	<path class="st28" d="M450.3,66.4c4.7,13.6,8.9,27.4,13.5,41.1"/>
	<path class="st28" d="M438.9,72.7c2.2,11.7,4,23.4,5.9,35.2"/>
	<path class="st28" d="M428.5,75.1c1.3,10.8,1.5,21.7,2,32.6"/>
	<path class="st28" d="M405.3,78.3c0,10.3,0.5,20.6,0.9,30.9"/>
	<path class="st28" d="M395.3,80.6c-0.9,8.6-0.4,17.3-0.3,26"/>
	<path class="st28" d="M417.6,75.9c-0.6,10.4-0.3,20.9,0,31.3"/>
	<path class="st28" d="M38.9,415.9c0.6,0.7,1.3,1.5,1.9,2.2"/>
	<path class="st28" d="M44.3,411.4c0.6,0.7,1.2,1.4,1.8,2.2"/>
	<path class="st28" d="M50.9,405.8c0.6,0.8,1.1,1.5,1.7,2.3"/>
	<path class="st28" d="M57.2,402c0.5,0.8,1,1.6,1.5,2.4"/>
	<path class="st28" d="M63.8,397.8c0.6,0.8,1.2,1.5,1.7,2.3"/>
	<path class="st28" d="M70.6,393.6c0.5,0.8,1,1.6,1.5,2.4"/>
	<path class="st28" d="M77.8,389.5c0.5,1,1.1,2,1.6,2.9"/>
	<path class="st28" d="M84.3,387.2c0.5,1,1.1,2,1.6,2.9"/>
	<path class="st28" d="M91.9,384c0.3,1.1,0.6,2.1,0.9,3.2"/>
	<path class="st28" d="M99.8,380.2c0.5,1.5,1,2.9,1.4,4.4"/>
	<path class="st28" d="M106.5,377.1c0.6,1.6,1.2,3.3,1.7,4.9"/>
	<path class="st28" d="M112.4,375.2c0.5,1.6,1,3.3,1.5,4.9"/>
	<path class="st28" d="M120.5,372.9c0.4,1.6,0.8,3.2,1.2,4.7"/>
	<path class="st28" d="M126,370.5c0.5,1.7,1.1,3.3,1.6,5"/>
	<path class="st28" d="M135.2,367.9c0.5,2,1.1,4,1.6,6"/>
	<path class="st28" d="M141.3,365.7c0.8,2.3,1.7,4.5,2.5,6.8"/>
	<path class="st28" d="M149.8,363.7c0.5,2.2,1,4.4,1.5,6.7"/>
	<path class="st28" d="M157.2,361.6c0.6,2.2,1.1,4.4,1.7,6.6"/>
	<path class="st28" d="M165.7,360.8c0.3,2.2,0.5,4.4,0.8,6.6"/>
	<path class="st28" d="M172.2,359.2c0.1,2.3,0.2,4.6,0.4,6.9"/>
	<path class="st28" d="M179.8,356.9c0.1,2.5,0.1,5,0.2,7.5"/>
	<path class="st28" d="M187.2,355.2c0,2.7,0,5.4,0,8.1"/>
	<path class="st28" d="M194.9,354c0,3,0,6,0,9"/>
	<path class="st28" d="M203.2,352.6c0,3.2,0,6.4,0,9.7"/>
	<path class="st28" d="M212,351c-0.1,3.1-0.3,6.1-0.4,9.2"/>
	<path class="st28" d="M223.3,350c-0.1,2.2-0.2,4.4-0.3,6.6"/>
	<path class="st28" d="M232.5,348.3c-0.1,1.3-0.3,2.7-0.4,4"/>
	<path class="st30" d="M327.8,344.8c0,0.6,0,1.1,0,1.7"/>
	<path class="st28" d="M336.4,345c0,1.3,0,2.7,0,4"/>
	<path class="st31" d="M345.1,344.9c0,2.3,0,4.5,0,6.8"/>
	<path class="st28" d="M353.9,345c0,3.6,0,7.1,0,10.7"/>
	<path class="st28" d="M363.5,345.6c0,3.9,0,7.8,0,11.6"/>
	<path class="st28" d="M370.6,345.6c0,4.1,0,8.1,0,12.2"/>
	<path class="st28" d="M379.9,345.7c0,4,0,8,0,12"/>
	<path class="st28" d="M387.9,345.2c0,4.3,0,8.5,0,12.8"/>
	<path class="st28" d="M397,344.8c0,4.4,0,8.8,0,13.2"/>
	<path class="st28" d="M406.1,344.5c0,4.4,0,8.8,0,13.2"/>
	<path class="st28" d="M415.2,344.1c0,4.5,0,9.1,0,13.6"/>
	<path class="st28" d="M413,197.9c0.1,7.5,0.1,15.1,0.1,22.6"/>
	<path class="st28" d="M427.6,198.9c-0.2,12.7-0.2,25.3,0.1,38"/>
	<path class="st28" d="M442.5,199.9c-0.1,12.1-0.1,24.2,0.1,36.3"/>
	<path class="st28" d="M457.4,199.9c-0.1,11.8-0.1,23.7,0,35.5"/>
	<path class="st28" d="M472.3,200.9c0,11.4,0,22.7,0,34.1"/>
	<path class="st28" d="M422.9,344.5c0.4,4.4,0.8,8.8,1.3,13.1"/>
	<path class="st28" d="M431.4,345c0.8,4.1,1.6,8.2,2.4,12.3"/>
	<path class="st28" d="M440.8,342.5c1.5,4.3,3,8.7,4.6,13"/>
	<path class="st28" d="M550.7,250.9c3.7-8.2,7.4-16.4,11.1-24.7"/>
	<path class="st28" d="M555.4,222.7c-3.6,7.9-7,15.9-10.5,23.8"/>
	<path class="st28" d="M547.9,218.7c-3.6,8.5-6.5,17.2-10.3,25.6"/>
	<path class="st28" d="M538.8,213.9c-2.6,9.6-5.8,19-8.6,28.5"/>
	<path class="st28" d="M526.4,209.5c-2.1,10.1-3.1,20.4-5.7,30.3"/>
	<path class="st28" d="M514.4,207.1c-1.2,10.4-2.6,20.9-3.9,31.3"/>
	<path class="st28" d="M500.8,203.2c-0.2,10.9-0.2,21.9-0.5,32.8"/>
	<path class="st28" d="M485,201.6c0.3,10.9,1.3,21.7,0.7,32.6"/>
	<path class="st28" d="M555,258.4c6.4-7.6,11.2-16.4,16.7-24.7"/>
	<path class="st28" d="M555.9,267.1c8-5.9,16-11.9,24-17.8"/>
	<path class="st28" d="M554.1,277.2c9.5-5.3,18.8-11,28.6-15.8"/>
	<path class="st28" d="M549.9,285.7c10-2.2,20.1-3.8,29.8-6.9"/>
	<path class="st28" d="M545.3,292c9.8,0.3,19.6,0.3,29.4-0.1"/>
	<path class="st28" d="M539.2,298.6c9.8,1.5,19.6,2.4,29.4,4"/>
	<path class="st28" d="M532.6,304.5c8.7,3.6,17.6,6.6,26.4,10.2"/>
	<path class="st28" d="M526.2,309.7c5.5,6.2,11,12.3,16.5,18.5"/>
	<path class="st28" d="M518,314.7c3.8,7.1,7.5,14.3,11.3,21.4"/>
	<path class="st28" d="M512,318.7c2.3,7.8,4.8,15.6,7.2,23.4"/>
	<path class="st28" d="M501.7,324.5c2.2,7.1,4.4,14.3,6.6,21.4"/>
	<path class="st28" d="M488.9,334.6c1.8,4.4,3.6,8.9,5.4,13.3"/>
	<path class="st28" d="M480.9,337.7c1.4,4.6,2.8,9.3,4.2,13.9"/>
	<path class="st28" d="M466.1,339.4c1.8,4.6,3.5,9.3,5.3,13.9"/>
	<path class="st28" d="M452,341.1c1.7,4.2,3.4,8.4,5,12.6"/>
	<g>
		<g>
			<path class="st32" d="M531.6,290.7c0.1-0.5-0.2-0.9-0.4-1.3c-0.2-0.4-0.6-1.3-0.6-2.1c-0.1-0.8-0.3-0.8-1.7-1.6
				c-1.4-0.8-3.3-2.4-4-3.5c-0.6-1-1.7-0.9-2.7-0.1c-1.1,0.7-2.4,1-2.8,1.9c-0.3,0.8-1.3,1.6-1.8,2.1c-0.5,0.5-0.3-0.3-1.9-1.5
				c-1.6-1.3-1.9-0.8-2.9-1.3c-1-0.5-1.5-1.4-1.7-2.6c-0.2-1.1,0.8-1.8,1.5-1.7c1.1,0.3,2.2,0,4-0.4c1.8-0.4,1.8-0.4,2.7,0.2
				c1,0.5,2.1-0.8,2.7-1.3c0.6-0.5-0.2-1.7-0.6-2c-0.4-0.3-0.3-1.3-1.9-1.8c-1.6-0.5-5.1-1.8-7-3.2c-0.1-0.1-0.2-0.1-0.3-0.2
				l3.5-10.3l-5.3,9.5c-0.1,0-0.1,0-0.2,0c0.1-0.3,0.1-0.9-0.2-1.3c-0.5-0.6-0.6-0.7-0.6-1.1c0-0.5-0.3-0.7-0.5-0.2
				c-0.2,0.4-0.7,1.9-0.4,2.6c-0.3,0.1-0.7,0.2-1.1,0.3c-0.5-0.3-1.9-1.2-2.8-0.8c-1.1,0.5,0.5,0.5,0.3,1.2
				c-0.1,0.3,0.2,0.6,0.5,0.9c-0.2,0.2-0.4,0.3-0.6,0.5c-0.3,0.2-0.5,0.6-0.7,0.9c-1,0.3-2.6,1-3.5,1c-1.5,0.1-1.8,0.5-2.3,0.7
				c0,0,1.2-0.4,1.9-0.3c0.6,0.2,1.2,0.5,2.1,0.3c0,0,0,0.3-0.6,0.5c-0.7,0.2-1.8,0.5-1.7,1.4c0.1,0.9,0.9,0.5,0.3,1.2
				c-0.6,0.7-2.7,1-3.6,1c-0.9,0-2.2,0.9-2.2,1.7c0,0,0.2-1,1.7-1.2c0.6-0.1,2.3,0.3,3.4,0.1c-0.4,0.3-0.8,0.5-1.2,0.4
				c-1.2,0-3.9,0.3-3,2.6c0,0-0.1-1.3,0.8-1.7c0.6-0.2,1.5,0.1,2.3,0.2c0.1,0.4,0.1,0.7-0.3,1c-0.6,0.6-2.2,1.8-2.8,3.1
				c0,0,0.8-0.9,1.6-1.2c0.9-0.3,1.2-0.4,1.6-0.9c-0.1,0.5-0.2,0.8-0.4,1.2c-0.4,0.7-1.7,2.5-2.6,3c0,0,1.8,0.3,3.5-1.9
				c-0.8,1.6-1.3,3-2.6,3.3c-2.4,0.6-3.2,0.2-3.9-0.3c0,0,2.1,2,3.8,1.9c0,0-1.1,0.3-2.9,0c-1.8-0.3-3.3,1.2-3.3,1.2s2-0.9,3-0.5
				c0.6,0.3,1.8,0.8,2.9,1c-0.5,0.2-1,0.4-1.4,0.6c-1.6,0.9-2.6,0.7-2.6,0.7s2.1,0.3,3.2,0c0.7-0.2,2-0.4,3.1-0.4
				c-0.3,0.4-0.9,0.8-1.9,1.1c-1.9,0.5-2.5,0.9-3.6,1.8c-0.9,0.8-1.5,1.6-1.9,2.8c0,0,0.6-1,1.5-1.3c1.8-0.7,1.5-1.2,2.7-1.5
				c0.5-0.1,1.2-0.1,2.3-0.2c-0.1,0.1-0.1,0.1-0.2,0.2c-1.2,1.4-0.7,2.2-2.1,3.6c0,0,1.7-1,2.6-2c0.5-0.5,1.7-0.8,2.8-1.1
				c-2.1,5.3-7.7,9.7-9.8,14.5c-0.2,0.6-0.4,1.1-0.5,1.6c-0.9,0.3-2.6,1.3-3.6,1.3c-1.4,0-1.6,0.6-2,0.8c0,0,1.1-0.6,1.7-0.4
				c0.6,0.2,1.1,0.1,1.9,0c0,0,0,0.2-0.5,0.4c-0.6,0.2-1.7,0.4-1.6,1.3c0.1,0.9,0.8,0.5,0.2,1.1c-0.6,0.6-2.5,0.8-3.3,0.9
				c-0.8,0-1.6,0.3-1.5,1c0,0,0.3-0.5,1-0.6c0.6-0.1,2.1,0.3,3.1,0.1c-0.3,0.2-0.7,0.4-1.1,0.4c-1.1,0-3.3-0.1-2.8,1.7
				c0,0-0.1-0.5,0.8-0.8c0.5-0.2,1.3,0.1,2.1,0.2c0.1,0.4,0.1,0.6-0.3,1c-0.5,0.5-2.1,1.8-2.2,2.9c0,0,0.6-1.1,1.2-1.2
				c0.9-0.2,1.1-0.4,1.5-0.8c-0.1,0.4-0.2,0.7-0.4,1.1c-0.4,0.6-1.4,2.9-2.2,3.4c0,0,1.5,0.1,3-2.3c-0.8,1.4-1.2,2.7-2.4,3
				c-2.2,0.5-2.9,0.2-3.5-0.3c0,0,1.9,1.9,3.5,1.8c0,0-1,0.3-2.7,0c-1.6-0.3-2.2,0.7-2.2,0.7s1-0.5,1.9-0.1c0.5,0.2,1.6,0.7,2.6,0.9
				c-0.5,0.2-0.9,0.4-1.3,0.5c-1.5,0.4-2.3,0.2-2.3,0.2s1.4,1.3,4.4,0.5c1.9-0.5,4.2-1.8,5.3-5.6c0.8-2.7,0.9-6,1.5-8.7
				c1,1,2.2,2.8,2.6,3.4c0.7,1-0.3,3.4-1.9,4.5c-1.6,1.1-1.3,2.2-0.2,3.5c1,1.3,2.9,5,3.5,6.2c0.6,1.3,1.6,1.3,1.9,1.3
				c0.3,0,1,0.2,1,0.8c-0.1,0.7,0.2,1.9,1.2,1.9c0.9,0,2.7,0.1,3.1-0.5c0.4-0.6-1.3-3-2.4-3c-1,0.1-3.1-1.7-3.6-2.7
				c-0.6-1-2.6-4.4-1.4-5.8c1.2-1.5,4.9-3.6,4.9-3.6s-1.4,3.3-1.4,4.5c0.1,1.1,2.3,1.6,4,2c1.7,0.4,4.1,3.5,5.1,3.4
				c1-0.1,2.4,0,2.3,0.7c-0.1,0.7,0.2,1.8,2.1,1.8c1.8,0,2.9-0.3,2.9-0.3s-0.8-1.7-1.7-2.1c-0.8-0.4-6.5-3.5-8.9-4.6
				c-2.4-1.1-1.2-4,0-6.2c1-1.8,2.4-3.5,2.2-6c-0.2-2.7,1.7-3.4,4.5-5.6c2.8-2.2,5.9-8.3,6.5-9.8c0.4-1.1,4-1.3,6.5-1.5
				c1.7-0.1,1.4-0.2,1.8,0c1.3,0.5,0.9,2.6,0.8,3.6c-0.1,1-0.3,1.8-0.1,2.7c0.2,0.7-0.2,0.9-0.6,1.2c-0.5,0.3-0.8,1.2-0.5,2.5
				c0.2,0.9,0.8,1.4,1.5,1.5c0.6,0.1,0.7,0,1.2-0.9c0.5-0.9-0.1-3.1,0.2-3.9c0.3-0.8,0.3-1.8,0.1-2.5c0,0-0.5-2.7-0.3-3.8
				c0.2-1.1,0.6-1,0.1-1.5c-1-1.1-2.2-1.3-3.3-1.4c-1.1-0.1-3.7-0.5-4.6-0.7s-0.5-0.3-0.5-1.3c0-1,2.3-1,2.3-2.5
				c0-1.4-0.3-4.9,1.5-6.5c1.8-1.6,4,1.4,4.9,2.5c0.7,0.9,0.7,1.4,1,1.7c0.3,0.4,0.8,0.3,0.8,0.3c-0.9,0.7-0.7,1.4,0.2,2.7
				c0.9,1.3,2,1.1,2.3,0.6C532,291.9,531.6,291.2,531.6,290.7z M481.4,327.9c0,0,1.5,0.1,2.6-0.6
				C483.9,327.3,483.8,328.6,481.4,327.9z M481.9,326.4C481.9,326.4,481.9,326.4,481.9,326.4C481.9,326.4,481.9,326.4,481.9,326.4
				c0.2,0,2.3-0.1,3-1.9c0,0,0.4-0.9,0.6-1.6C485.5,323,485.8,326.5,481.9,326.4z M485,320.1c-0.3,0.2-1.5,1.1-1.5,1.1
				s0.9-1,1.4-1.4c0.5-0.4,0.2-1,0.2-1C486.2,319.3,485.3,319.8,485,320.1z M487.6,314.6c-1.1,0-0.5,0.8-0.5,0.8s-0.5-0.4-0.3-0.8
				c0.2-0.4,1.8-0.5,1.9-0.9C488.7,313.7,488.7,314.6,487.6,314.6z M501,336.3c0.2,0.3,0.1,0.4,0.1,0.4c-0.1,0.3-2.7,0.4-2.7,0.4
				C500.5,336.8,501,336.3,501,336.3z M497.8,282.3c0,0,1.5-1,1.4-1.8C499.2,280.5,500.6,281.2,497.8,282.3z M496.7,294
				c0,0,2-0.7,2.4-1.3C499.1,292.7,498.8,294,496.7,294z M496.5,291.8c2-0.9,2.6,0,2.6,0C498,291.5,496.5,291.8,496.5,291.8z
				 M498.3,288.3c-1.2,0.9-2.2,0.4-2.2,0.4s1.7,0.3,2.7-1.9c0.7-1.7,0.9-2.2,0.9-2.3c0,0,0-0.1,0-0.1s0,0,0,0.1
				C499.8,284.9,499.5,287.5,498.3,288.3z M499.5,278.2c0,0,1.6-0.5,1.9-1.2C501.4,277,502.1,278.3,499.5,278.2z M513.2,333.3
				c0,0,0.2,0.1,0.2,0.4c0,0-1.5,0.2-2.4,0.2C511,333.9,513,333.6,513.2,333.3z M503.8,273.6c-0.9,0-0.5-0.3-2.1-0.1
				c0,0,1.8-0.3,3-0.9C504.7,272.7,504.7,273.6,503.8,273.6z M526.2,309c0,0,0-2.2-1-3.4C525.2,305.5,526.9,307,526.2,309z
				 M529.3,289.2c0,0,1.7,0.2,2.1,1.7C531.4,290.9,530.3,289.9,529.3,289.2z"/>
		</g>
		<g>
			<path class="st32" d="M499.8,284.4C499.8,284.4,499.8,284.4,499.8,284.4C499.8,284.4,499.8,284.4,499.8,284.4z"/>
		</g>
		<g>
			<path class="st32" d="M481.9,326.4C481.9,326.4,481.9,326.4,481.9,326.4C481.9,326.4,481.9,326.4,481.9,326.4z"/>
		</g>
	</g>
	<g>
		<g>
			<path class="st32" d="M83.4,221l6.5-1.3l4.2-2.2l-4.7-0.4l-6,1.2l0-1.3c0.2-0.1,0.8,0.2,1.6-0.4c1.6-1.1,0.8-2.3,0.6-3.5
				c-0.1-0.3-0.2-0.7-0.4-1.1c0.1-0.3,0.2-0.7,0.1-1.2c-0.1-0.6-0.7-0.9-1.2-1.1c-0.2-0.3-0.3-0.6-0.5-0.9l0-1c0,0-0.2,0.1-0.5,0.1
				c-0.8-1.3-1.4-2.2-1.4-2.2l1-1.2c-0.7-1.5-3.9-1-3.9-1c-0.5-0.2-1.1-0.3-1.7-0.5c-0.2-0.7-0.6-2.2-0.2-3c0.6-1.1,1-6.5-4.5-6.5
				c-5.5,0-5.1,5.4-4.5,6.5c0.3,0.6,0.2,1.5,0,2.2c-0.6,0-1.2,0.1-1.8,0.2c-0.2,0-0.3,0.1-0.5,0.1c-0.9-0.2-3.5-0.6-4.3,0.7l0.8,0.9
				c-0.5,0.5-0.4,1-0.4,1l-2.8,4.7c0,0-1.2-0.2-1.5,0.2c-0.3,0.3-0.4,1.7-0.4,1.7s-0.7-0.2-1.4,1.5c-0.7,1.7,0.7,3.3,0.7,3.3
				c-0.2,1.5,3.1,5.5,3.1,5.5s0.2,0.8,0.3,1.6l-0.6,0.1c-0.2,0-0.4,0.3-0.3,0.5l0.1,0.3l0.1,0.3c0,0.2,0.3,0.4,0.5,0.3l0.6-0.1
				c0.3,0.8,1.5,1.1,2.9,0.9c0.7-0.1,0.9-0.8,1-1.6l0.2,0l0.2,0.2c-1.1,2.5-2.7,7.9-2.7,7.9c0.2-0.2,0.5-0.4,0.7-0.6
				c-0.1,0.5-0.2,0.9-0.3,1.4c-0.1,0.7-0.2,1.3-0.4,1.8c-0.2,0.1-0.4,0.2-0.6,0.2c-0.7-0.1-2.2,7.9-2.2,7.9c0.2-0.3,0.4-0.5,0.6-0.7
				c-0.1,0.7-0.2,1.3-0.3,1.9c-0.1,0-0.2,0-0.2,0c-0.7,0-1.1,3.5-1.1,3.5c0.1-0.1,0.3-0.2,0.4-0.2c-0.5,1.5-1.1,2.5-1.8,2.9
				c-1.3,0.7-2.1,2.7-1.2,3c0,0,2.3,0.5,5,0c0.7-0.1,0.5-1.2,0.7-2.8c0-0.5,0.3-1.3,0.7-2.3c0.1,0.1,0.2,0.3,0.2,0.5
				c0,0,1.6-3.2,1-3.5c0,0,0,0,0,0c0.2-0.5,0.5-1.1,0.7-1.5c0,0.2,0,0.5-0.1,0.7c0,0,5-6.4,4.5-6.8c-0.1-0.1-0.2-0.3-0.2-0.5
				c0.2-0.5,0.3-1,0.3-1.5c0.1-1.4,1.7-3.7,2.9-5.3c1.4,1.1,3,1.7,4.6,1.6c1.4,1.4,3.1,2.7,4.6,3.3c0,0,0,0.1-0.1,0.4
				c-0.2,0.1-0.3,0.2-0.5,0.2c-0.7,0.1-0.8,8.2-0.8,8.2c0.1-0.3,0.3-0.6,0.5-0.8c0,0.3,0.1,0.7,0.1,1c0,0.2,0,0.4,0.1,0.6
				c-0.1,0-0.1,0-0.2,0c-0.7,0-0.7,3.6-0.7,3.6c0.1-0.1,0.2-0.2,0.3-0.2c-0.6,1.8-1.5,3.3-1,4c0.2,0.2-0.1,0.8,0.4,0.9
				c2.1,0.4,5.9,1,7,1c1.2,0,2.4-0.6,2.3-1c0-0.8-1.2-1.2-2.5-1.7c-1.9-0.9-3.2-1.3-2.9-3c0-0.1,0.1-0.2,0.1-0.4
				c0.1,0.1,0.2,0.3,0.2,0.5c0,0,1.9-3.1,1.3-3.4c0,0-0.1,0-0.1-0.1c0.3-0.5,0.5-1.1,0.8-1.7c0.1,0.3,0.3,0.6,0.3,1
				c0,0,2.1-7.8,1.5-8.1c-0.1,0-0.2-0.1-0.3-0.2c-0.2-1.2-0.6-2.6-1.3-4c0.2,0.1,0.4,0.2,0.6,0.4c0,0-1.6-3.4-3-5.8
				c0.7-1.6,1.1-3.3,1.1-5L83.4,221z M92.6,217.8l-3,1.6l-24.1,4.8l-0.2-1L92.6,217.8z M82.6,218.5l0-3.1l0-3.3c0-1,0-2,0-3
				c-0.1,0-0.1,0-0.2,0c-0.2,0-0.3,0.1-0.5,0.1c-0.3,0.1-0.7,0.1-1,0.1c-0.3,0-0.7,0.1-1,0.1c-0.3,0-0.7,0-1,0.1c-0.7,0-1.3,0-2-0.1
				c-0.3,0-0.7-0.1-1-0.2c-0.3-0.1-0.6-0.2-0.9-0.3c-0.1,0.1-0.3,0.1-0.4,0.2c-0.2,0.1-0.3,0.1-0.5,0.2c-0.3,0.1-0.7,0.2-1,0.2
				c-0.7,0.1-1.3,0.1-2,0.1c-0.3,0-0.7,0-1-0.1c-0.3,0-0.7-0.1-1-0.1c-0.3,0-0.7-0.1-1-0.1c-0.2,0-0.3-0.1-0.5-0.1
				c-0.1,0-0.1,0-0.2,0c0,1,0,2,0,3l0,3.3l0,3.3l0,1.7c0,0.3,0,0.6,0,0.8c0,0.1,0,0.2,0,0.3l-0.3,0.1c0-0.1,0-0.3,0-0.4
				c0-0.3,0-0.6,0-0.8l0-1.7l-0.1-3.3l-0.1-3.3c0-1.1,0-2.2-0.1-3.3l0-0.4l0.3,0.1h0c0.2,0.1,0.3,0.1,0.5,0.1c0.2,0,0.3,0.1,0.5,0.1
				c0.3,0.1,0.6,0.1,1,0.2c0.3,0.1,0.6,0.1,1,0.2c0.3,0,0.7,0.1,1,0.1c0.7,0,1.3,0,2,0c0.2,0,0.3,0,0.5-0.1c0.2,0,0.3-0.1,0.5-0.1
				c0.2,0,0.3-0.1,0.5-0.1c0.2-0.1,0.3-0.1,0.5-0.2l0,0l0,0c0.3,0.1,0.6,0.3,0.9,0.3c0.2,0,0.3,0.1,0.5,0.1c0.2,0,0.3,0.1,0.5,0.1
				c0.7,0.1,1.3,0.1,2,0c0.3,0,0.7-0.1,1-0.1c0.3,0,0.7-0.1,1-0.2c0.3-0.1,0.6-0.1,1-0.2c0.2,0,0.3-0.1,0.5-0.1
				c0.2,0,0.3-0.1,0.5-0.1l0,0l0.3-0.1l0,0.4c0,1.1,0,2.2-0.1,3.3l-0.1,3.3l0,3L82.6,218.5z M67.4,203.8c0,0,1.7,2.2,4.3,2.7
				c0,0-3.4-0.6-4.4-2.4L67.4,203.8z M71,205.4L71,205.4L71,205.4L71,205.4C71,205.4,71,205.4,71,205.4c0,0.1,0,0.1,0,0.1
				c0,0.1,0.2,0.2,0.2,0.3c0.1,0.1,0.1,0.1,0.1,0.1l0,0c0,0-0.1,0-0.1-0.1c0,0-0.1,0-0.2-0.1c-0.1,0-0.1-0.1-0.2-0.2
				c0-0.1,0-0.2,0-0.3c0-0.1,0-0.2,0-0.3c0-0.2,0-0.4,0-0.7c0-0.5,0-0.9,0-1.3c0-0.3,0-0.6,0-0.6l0,0c0,0,0,0.1,0,0.2
				c0,0.1,0,0.2,0,0.4c0,0.1,0,0.2,0,0.3c0,0.1,0,0.2,0,0.3c0,0.1,0,0.2,0,0.3c0,0.1,0,0.2,0,0.3c0,0.1,0,0.2,0,0.3
				c0,0.1,0,0.2,0,0.3C71,205.1,71,205.2,71,205.4C71,205.3,71,205.3,71,205.4L71,205.4L71,205.4L71,205.4
				C71,205.4,71,205.4,71,205.4z M70,202.5c0,0.1,0,0.2,0,0.3c0,0.1,0,0.2,0,0.3c0,0.1,0,0.2,0,0.3c0,0.1,0,0.2,0,0.3
				c0,0.1,0,0.2,0,0.3c0,0.1,0,0.2,0,0.3c0,0.1,0,0.2,0,0.3c0,0,0,0,0,0.1l0,0l0,0l0,0c0,0,0,0,0,0v0l0,0l0,0c0,0,0,0,0,0.1
				c0,0,0,0,0,0c0,0.1,0.2,0.2,0.2,0.3c0.1,0.1,0.1,0.1,0.1,0.1l0,0c0,0-0.1,0-0.1-0.1c0,0-0.1,0-0.2-0.1c-0.1,0-0.1-0.1-0.2-0.2
				c0-0.1,0-0.2,0-0.3c0-0.1,0-0.2,0-0.3c0-0.2,0-0.4,0-0.7c0-0.5,0-0.9,0-1.3c0-0.3,0-0.6,0-0.6l0,0c0,0,0,0.1,0,0.2
				C69.9,202.2,70,202.4,70,202.5z M80.8,204.9c0.6-0.1,1,0.1,1,0.1s-1.3,0.4-2.5,2.3C79.3,207.3,80.2,205,80.8,204.9z M75.6,199.4
				c-0.3,0.1-0.6,0.2-0.9,0.3l-0.2,0.1c-0.1,0-0.2,0-0.2,0.1c-0.2,0-0.3,0.1-0.5,0.1c-0.1,0-0.2,0-0.2,0.1c-0.1,0-0.2,0-0.2,0
				c-0.1,0-0.2,0-0.2,0l-0.2,0l0.2,0c0.1,0,0.2,0,0.2,0c0.1,0,0.2,0,0.2-0.1c0.1,0,0.2,0,0.2-0.1c0.3-0.1,0.6-0.2,0.9-0.3
				C74.9,199.6,75.2,199.4,75.6,199.4c0.3-0.2,0.6-0.3,0.9-0.4l0.1,0l0,0.1c0,0.2-0.1,0.4-0.1,0.6c-0.1,0.2-0.1,0.4-0.2,0.6
				c0,0,0,0.1-0.1,0.1c0,0,0,0.1-0.1,0.1c-0.1,0.1-0.2,0.1-0.3,0.2c-0.2,0.1-0.4,0.2-0.6,0.3c-0.4,0.2-0.8,0.3-1.2,0.4
				c-0.4,0.1-0.8,0.2-1.2,0.3c0.4-0.1,0.8-0.3,1.2-0.4c0.4-0.1,0.8-0.3,1.2-0.4c0.2-0.1,0.4-0.2,0.6-0.3c0.1-0.1,0.2-0.1,0.2-0.2
				c0,0,0.1-0.1,0.1-0.1c0,0,0-0.1,0.1-0.1c0.1-0.2,0.1-0.4,0.2-0.6c0.1-0.2,0.1-0.4,0.1-0.5C76.1,199.2,75.9,199.3,75.6,199.4z
				 M72,198.9c0-0.4,0-0.7,0-1c0-0.3,0-0.7,0-1c0-0.3,0-0.6,0-0.9c0-0.3,0-0.5,0-0.7c0-0.2,0-0.4,0-0.6c0-0.2,0-0.3,0-0.4
				c0-0.1,0-0.1,0-0.1h0c0,0,0,2.9,0,5.7c0,2.9,0,5.7,0,5.7h0c0,0,0,0,0-0.1c0-0.1,0-0.2,0-0.4c0-0.2,0-0.3,0-0.6c0-0.2,0-0.5,0-0.7
				c0-0.3,0-0.6,0-0.9c0-0.3,0-0.6,0-1c0-0.3,0-0.7,0-1c0-0.4,0-0.7,0-1.1C72,199.6,72,199.3,72,198.9z M71.5,194.2
				c0,0-2.4,0.1-3.2,2.6H68C68,196.8,68.9,194.1,71.5,194.2z M67.8,199l-0.1-0.3l0.2,0.1c0.1,0.1,0.3,0.1,0.5,0.2l0.5,0.2
				c0.2,0.1,0.3,0.1,0.5,0.2c0.2,0.1,0.3,0.1,0.5,0.2l0.2,0.1c0.1,0,0.2,0.1,0.2,0.1c0.2,0.1,0.3,0.1,0.5,0.1c0.1,0,0.2,0,0.2,0.1
				s0.2,0,0.2,0.1c0.1,0,0.2,0,0.2,0.1l0.2,0.1l-0.2,0c-0.1,0-0.2,0-0.2,0c-0.1,0-0.2,0-0.2,0c-0.1,0-0.2,0-0.2,0
				c-0.3-0.1-0.6-0.1-1-0.2c-0.2,0-0.3-0.1-0.5-0.1c-0.1,0-0.2-0.1-0.2-0.1l-0.2-0.1c-0.2-0.1-0.5-0.2-0.7-0.2
				c0,0.1,0.1,0.2,0.1,0.3c0.1,0.2,0.1,0.4,0.2,0.6c0,0,0,0.1,0.1,0.1c0,0,0.1,0.1,0.1,0.1c0,0.1,0.1,0.1,0.2,0.2
				c0.2,0.1,0.4,0.2,0.6,0.3c0.2,0.1,0.4,0.2,0.6,0.2c0.2,0.1,0.4,0.2,0.6,0.2l1.2,0.4c-0.2,0-0.4-0.1-0.6-0.1
				c-0.2,0-0.4-0.1-0.6-0.2c-0.2-0.1-0.4-0.1-0.6-0.2c-0.2-0.1-0.4-0.1-0.6-0.2c-0.2-0.1-0.4-0.2-0.6-0.3c-0.1-0.1-0.2-0.1-0.3-0.2
				c0,0-0.1-0.1-0.1-0.1c0,0,0,0,0-0.1c0-0.1-0.1-0.1-0.1-0.2c-0.1-0.2-0.2-0.4-0.2-0.6C67.9,199.5,67.8,199.3,67.8,199z M68.9,202
				c0-0.3,0-0.6,0-0.6l0,0c0,0,0,0.1,0,0.2c0,0.1,0,0.2,0,0.4c0,0.1,0,0.2,0,0.3c0,0.1,0,0.2,0,0.3c0,0.1,0,0.2,0,0.3
				c0,0.1,0,0.2,0,0.3c0,0.1,0,0.2,0,0.3c0,0.1,0,0.2,0,0.3c0,0.1,0,0.2,0,0.3c0,0,0,0,0,0.1l0,0l0,0l0,0c0,0,0,0,0,0v0l0,0l0,0
				c0,0,0,0,0,0.1c0,0,0,0,0,0c0,0.1,0.2,0.2,0.2,0.3c0.1,0.1,0.1,0.1,0.1,0.1l0,0c0,0-0.1,0-0.1-0.1c0,0-0.1,0-0.2-0.1
				c-0.1,0-0.1-0.1-0.2-0.2c0-0.1,0-0.2,0-0.3c0-0.1,0-0.2,0-0.3c0-0.2,0-0.4,0-0.7C68.9,202.9,68.9,202.4,68.9,202z M61.8,203.7
				c-0.1-0.1-0.1-0.2-0.2-0.3c0-0.1-0.1-0.1-0.1-0.1l0,0c0,0,0,0,0,0c0,0,0.1,0,0.1,0c0,0,0.1,0,0.1,0.1c0,0,0.1,0.1,0.2,0.1
				c0.1,0.1,0.2,0.2,0.4,0.3c0.1,0,0.1,0.1,0.2,0.1c0.1,0,0.1,0.1,0.2,0.1c0.1,0.1,0.2,0.2,0.3,0.3c0.1,0,0.1,0.1,0.2,0.1
				c0,0,0.1,0.1,0.1,0.1c0,0,0,0,0.1,0c0,0,0,0,0.1,0c0,0,0.1,0,0.1,0c0,0,0.1,0,0.1,0c0,0,0,0,0,0l0,0c0,0,0,0,0,0c0,0,0,0-0.1,0.1
				c0,0-0.1,0-0.1,0.1c-0.1,0-0.1,0-0.2,0c-0.1,0-0.1,0-0.2,0c-0.1,0-0.2,0-0.2-0.1c-0.1,0-0.2-0.1-0.2-0.1c-0.1,0-0.1-0.1-0.2-0.2
				C62.2,204.2,62,203.9,61.8,203.7z M64,213.4c0.6,0.9,1.2,2.1,1.2,3.5c0,1.9,0.2,4,0.2,5.1l-0.6,0.1l-0.5-2.6l-1.1-0.7l-0.6,0.8
				c0-0.1,0-0.3,0-0.4c0-2.4-1.5-4.1-1.5-4.1L64,213.4z M57.2,211c0,0,0-0.1,0-0.1c0-0.1,0-0.1,0.1-0.2c0-0.1,0.1-0.2,0.1-0.2
				c0.1-0.1,0.2-0.1,0.3-0.2c0.1,0,0.2-0.1,0.4-0.1c0.3,0,0.5,0,0.8,0c0.5,0.1,1.1,0.2,1.5,0.3c0.2,0,0.4,0.1,0.5,0.1
				c0.1,0,0.2,0,0.2,0l0,0c0,0,0,0,0,0c0,0-0.1,0-0.1,0c-0.1,0-0.3,0-0.5,0c-0.1,0-0.2,0-0.3,0c-0.1,0-0.2,0-0.4,0
				c-0.1,0-0.3,0-0.4,0c-0.1,0-0.3,0-0.4,0c-0.1,0-0.3,0-0.4,0c-0.1,0-0.2,0-0.4,0c-0.1,0-0.2,0-0.3,0c-0.1,0-0.2,0.1-0.2,0.1
				c-0.1,0.1-0.2,0.2-0.3,0.3C57.2,210.9,57.2,211,57.2,211C57.2,211,57.2,211,57.2,211L57.2,211C57.2,211,57.2,211,57.2,211z
				 M58.6,215.1c-0.1,0-0.2,0-0.2,0c-0.1,0-0.2,0-0.2,0c-0.1,0-0.2,0-0.2,0c-0.1,0-0.3,0.1-0.4,0.2c0,0,0,0-0.1,0l0,0
				c0,0-0.1,0-0.1,0.1c-0.1,0-0.1,0.1-0.2,0.1c0,0.1-0.1,0.1-0.1,0.2c0,0.1-0.1,0.1-0.1,0.2c-0.1,0.1-0.1,0.2-0.1,0.3
				c0,0.1-0.1,0.2-0.1,0.3c0,0.1,0,0.2,0,0.2c0,0.1,0,0.2,0,0.2l-0.1,0c0,0,0,0,0-0.1c0,0,0-0.1-0.1-0.2c0-0.1-0.1-0.2-0.1-0.3
				c0-0.1,0-0.2,0-0.4c0-0.1,0-0.3,0.1-0.5c0-0.1,0.1-0.2,0.1-0.2c0-0.1,0.1-0.2,0.2-0.2c0.1-0.2,0.3-0.3,0.5-0.4
				c0.2-0.1,0.4-0.2,0.6-0.2l0.1,0l0.1,0l0,0l0,0c0.1,0,0.2,0,0.3,0c0.2,0,0.4,0,0.5,0c0.1,0,0.2,0,0.2,0c0.1,0,0.2,0,0.2,0.1
				c0.1,0,0.1,0,0.2,0.1c0.1,0,0.1,0.1,0.2,0.1c0.1,0,0.1,0.1,0.2,0.1c0.1,0,0.1,0.1,0.1,0.1c0.1,0.1,0.2,0.1,0.2,0.2
				c0.1,0,0.1,0.1,0.1,0.1c0,0,0,0,0,0l0,0.1c0,0-0.1,0-0.2-0.1c-0.1,0-0.1,0-0.2-0.1c-0.1,0-0.2,0-0.3-0.1c-0.1,0-0.1,0-0.2,0
				c-0.1,0-0.1,0-0.2,0c-0.1,0-0.1,0-0.2,0c-0.1,0-0.1,0-0.2,0C58.7,215.1,58.6,215.1,58.6,215.1z M59.3,221.6
				c-0.2-0.2-0.3-0.4-0.3-0.4l0,0c0,0,0,0,0.1,0.1c0,0,0.1,0.1,0.1,0.1c0.1,0,0.1,0.1,0.2,0.1c0.1,0,0.1,0.1,0.2,0.1
				c0.1,0.1,0.1,0.1,0.2,0.2c0.1,0.1,0.2,0.1,0.2,0.2c0.1,0.1,0.2,0.1,0.2,0.2c0.1,0.1,0.2,0.1,0.2,0.2c0.1,0,0.2,0.1,0.2,0.1
				c0.1,0,0.2,0.1,0.2,0.1c0.1,0,0.2,0.1,0.2,0.1c0.1,0,0.1,0,0.2,0c0.1,0,0.1,0,0.2,0c0.1,0,0.1,0,0.1,0l0,0c0,0-0.1,0-0.1,0
				c0,0-0.1,0-0.2,0c0,0-0.1,0-0.1,0c0,0-0.1,0-0.1,0c-0.1,0-0.2,0-0.3,0c-0.1,0-0.2,0-0.3-0.1c-0.1,0-0.2-0.1-0.3-0.1
				c-0.1,0-0.2-0.1-0.3-0.2C59.8,222.1,59.5,221.9,59.3,221.6z M63.6,222.6c0-0.3-0.1-0.6-0.1-0.6s-0.5-0.6-0.7-2
				c0.2,0.3,0.7,0.8,1.1,1.9L63.6,222.6z M82.9,222.1c-0.1,1.1-0.4,2.2-0.8,3.3c-0.4,1-1,2-1.6,2.8c-0.2,0.2-0.3,0.4-0.5,0.6
				c-0.1,0.1-0.2,0.2-0.3,0.3c-0.1,0.1-0.2,0.2-0.3,0.3c-0.4,0.4-0.8,0.7-1.3,0.9c-0.5,0.3-1,0.4-1.5,0.6c-0.5,0.1-1,0.2-1.5,0.2
				c-0.5,0-1-0.1-1.5-0.2c-0.5-0.1-1-0.3-1.5-0.6c-0.5-0.3-0.9-0.6-1.3-0.9c-0.1-0.1-0.2-0.2-0.3-0.3c-0.1-0.1-0.2-0.2-0.3-0.3
				c-0.2-0.2-0.4-0.4-0.5-0.6c-0.7-0.9-1.2-1.8-1.6-2.8c-0.2-0.4-0.3-0.8-0.4-1.2l0.3-0.1c0.1,0.4,0.2,0.8,0.4,1.2
				c0.4,1,0.9,1.9,1.6,2.8c0.2,0.2,0.3,0.4,0.5,0.6c0.1,0.1,0.2,0.2,0.3,0.3c0.1,0.1,0.2,0.2,0.3,0.3c0.4,0.3,0.8,0.6,1.2,0.9
				c0.4,0.2,0.9,0.4,1.4,0.6c0.5,0.1,1,0.2,1.5,0.2c0.5,0,1-0.1,1.5-0.2c0.5-0.1,1-0.3,1.4-0.6c0.4-0.2,0.9-0.5,1.2-0.9
				c0.1-0.1,0.2-0.2,0.3-0.3c0.1-0.1,0.2-0.2,0.3-0.3c0.2-0.2,0.3-0.4,0.5-0.6c0.7-0.8,1.2-1.8,1.6-2.8c0.4-1,0.7-2.1,0.8-3.2
				c0-0.3,0-0.5,0-0.8c0,0,0-0.1,0-0.1l0.3-0.1c0,0.1,0,0.1,0,0.2C82.9,221.5,82.9,221.8,82.9,222.1z"/>
		</g>
	</g>
	<g>
		<polygon class="st33" points="460.9,173.4 458.8,173.2 457.9,175.3 456.3,175.9 454.3,174.8 452.7,176.2 453.6,178.3 452.8,179.8 
			450.7,180.4 450.5,182.6 452.6,183.5 453.2,185.1 452.1,187 453.5,188.6 455.6,187.8 457.1,188.5 457.8,190.7 459.9,190.8 
			460.8,188.7 462.4,188.2 464.3,189.3 465.9,187.8 465.1,185.7 465.8,184.2 468,183.6 468.1,181.4 466,180.6 465.5,179 466.6,177 
			465.1,175.4 463.1,176.3 461.5,175.5 		"/>
		<polygon class="st32" points="451.8,178.9 451,176.5 448.4,176.5 447.1,175.1 447.4,172.5 445.1,171.4 443.3,173.2 441.3,173.1 
			439.7,171.1 437.4,171.9 437.4,174.5 435.9,175.8 433.3,175.5 432.3,177.7 434.1,179.6 434,181.5 431.9,183.2 432.8,185.5 
			435.4,185.5 436.7,187 436.4,189.5 438.6,190.6 440.4,188.8 442.4,188.9 444,190.9 446.4,190.1 446.4,187.5 447.8,186.2 
			450.4,186.5 451.5,184.3 449.7,182.4 449.8,180.5 		"/>
		
			<ellipse transform="matrix(5.729275e-02 -0.9984 0.9984 5.729275e-02 235.8354 611.7897)" class="st20" cx="441.9" cy="181" rx="5.4" ry="5.4"/>
		
			<ellipse transform="matrix(5.728758e-02 -0.9984 0.9984 5.728758e-02 251.2952 630.1644)" class="st20" cx="459.3" cy="182" rx="4.9" ry="4.9"/>
		<path class="st34" d="M456.5,230.7c0.1-6.1,0.6-21.3,0.6-21.3c-1.5,0.1-9.6-0.7-15.7-1.4l-0.5,22.7H456.5z"/>
		<path class="st35" d="M439,211.4c-1.1-2.8-1.1-4.1-1.1-7.1c0.6-14,8.6-12,13.8-11.9c6.1,0.3,11.8,4.5,12,13.8
			c-0.3,0.9-0.7,1.7-0.7,1.7l1.9,5.2c0.3,0.9-0.2,1.8-1.1,2l-1.3,0.3c0,0.9,0,5,0,5c-0.1,2.4-1.2,6.1-4.3,5.7
			c-9.1-1-12.5-5.2-11.8-13.3C444.1,212.6,439.8,213.4,439,211.4z"/>
		<path class="st33" d="M440.4,217.7c7.2,2,4.3-8.7,4.3-8.7s1.9,2.2,2.7,3.1c1.5,0,1.7,0.2,3.1,0.1c0.6-9.2-1.6-16.2,11.5-13.3
			c2.6-0.4,0.3-8.8-11.7-8.3c-7,0.3-12.9,3.8-13.9,10.8C435.8,205.8,435.5,211.6,440.4,217.7z"/>
		<path class="st35" d="M443.1,209.1c0,2.2,1.8,4.7,3.2,4.8c1.4,0,1.6-1.8,1.6-4c0-1.5,0.1-3.5-1.4-3.9
			C445.1,205.5,443.1,205.9,443.1,209.1z"/>
		
			<ellipse transform="matrix(5.728722e-02 -0.9984 0.9984 5.728722e-02 235.8378 611.7908)" class="st35" cx="441.9" cy="181" rx="4" ry="4"/>
		
			<ellipse transform="matrix(5.729229e-02 -0.9984 0.9984 5.729229e-02 251.2931 630.1634)" class="st32" cx="459.3" cy="182" rx="3.7" ry="3.7"/>
	</g>
	<g>
		<path class="st32" d="M83.8,82.4l-0.3,28.5c0,1.5-0.4,2.3-2.5,2.6c-2.6,0.3-3.4-0.1-3.8-0.8c-0.7-1.4-7.9-28.6-9.1-30.5
			C66.9,80.3,83.8,82.4,83.8,82.4z"/>
		<path class="st11" d="M83.7,88.5l0.1-6.1c0,0-16.9-2-15.7-0.2c0.3,0.4,1.4,4,2.2,6.7L83.7,88.5z"/>
		<path class="st32" d="M57.1,72.6c-1.5,0-2.8,1-3.1,2.5c-0.2,0.9-0.3,2-0.4,3.3c0,1.6,0.1,2.7,0.5,3.6c0.5,1.1,1.6,1.7,2.8,1.8
			c5.8,0.2,26.6,1,31,2c5.1,1.2,22,8.7,22,8.7l-3.2-38.1c0,0-15.6,12.6-25.5,14.6C73.5,72.5,61.9,72.6,57.1,72.6z"/>
		<path class="st11" d="M67.7,84.2c2.2,0.1,4.4,0.2,6.6,0.3c-1.4-4.5-0.8-9.6-0.1-12.6c-2.2,0.2-4.5,0.4-6.6,0.5
			C66.6,76.7,66.7,80.8,67.7,84.2z"/>
		
			<ellipse transform="matrix(1 -7.874831e-03 7.874831e-03 1 -0.5812 0.8809)" class="st11" cx="111.6" cy="74.2" rx="14.9" ry="25"/>
		
			<ellipse transform="matrix(1 -7.857542e-03 7.857542e-03 1 -0.5799 0.8877)" class="st33" cx="112.7" cy="74.2" rx="12.6" ry="21.2"/>
		<path class="st35" d="M110,76.3c0.3-4.2-2.4-7.8-6.1-8c-1.3-0.1-2.4,0.2-3.5,0.9c-0.2,1.7-0.4,3.4-0.4,5.2c0,3.1,0.5,6,1.2,8.7
			c0.5,0.2,1,0.3,1.6,0.4C106.5,83.6,109.7,80.5,110,76.3z"/>
		<ellipse transform="matrix(0.9387 -0.3449 0.3449 0.9387 -14.6355 49.7775)" class="st32" cx="132.6" cy="66" rx="3.3" ry="0.8"/>
		
			<ellipse transform="matrix(0.9176 -0.3975 0.3975 0.9176 -12.5413 56.2909)" class="st32" cx="129.5" cy="58.4" rx="3.3" ry="0.8"/>
		
			<ellipse transform="matrix(0.2961 -0.9552 0.9552 0.2961 11.7995 185.4461)" class="st32" cx="131.7" cy="84.7" rx="0.8" ry="3.3"/>
		
			<ellipse transform="matrix(0.3734 -0.9277 0.9277 0.3734 -5.6022 177.5127)" class="st32" cx="128.6" cy="92.9" rx="0.8" ry="3.3"/>
		
			<ellipse transform="matrix(5.188918e-02 -0.9987 0.9987 5.188918e-02 51.3196 204.4821)" class="st32" cx="133.4" cy="75.2" rx="0.8" ry="3.3"/>
	</g>
	<g>
		<circle class="st32" cx="525.4" cy="46.8" r="31.5"/>
		<circle class="st36" cx="525.4" cy="46.8" r="23.9"/>
		<circle class="st32" cx="525.4" cy="46.8" r="17.1"/>
		<circle class="st36" cx="525.4" cy="46.8" r="11.7"/>
		<circle class="st32" cx="525.4" cy="46.8" r="5.4"/>
		<path class="st33" d="M553.2,10.6c-0.7-0.3-2.8-1.4-4.5,2.6c-1.6,3.9-3.4,9.1-3.4,9.1s4.2-3.5,7.2-6.4
			C555.8,12.8,553.9,11,553.2,10.6z"/>
		<path class="st35" d="M549.6,13.7l-4.1,4.2c-1.2,1.3-2.3,2.6-3.3,4.1l-16.7,24.8l18.9-20.4c2.1-2.3,3.9-4.9,5.2-7.8l1.6-3.5
			C550.6,14.7,550,14.2,549.6,13.7z"/>
		<path class="st33" d="M544.7,22.6c0,0-2.7-7.7-0.2-12.6c2.6-5,5.9,4.5,5.9,4.5L544.7,22.6z"/>
		<path class="st33" d="M544.7,22.6c0,0,8.1,0,11.9-4.1c3.8-4.1-6.2-4-6.2-4L544.7,22.6z"/>
		<path class="st32" d="M509.2,56.8c0,0-3.4,0.8-5.9,2.7c-2.5,1.9-5.1,7.6-5.6,11.7c-0.5,4.1-1.5,7.2,0,9.3
			c1.5,2.1,6.5,2.5,10.8,2.9c4.3,0.4,10.2-0.6,11.4-2.1c1.2-1.5,1.1-12.8-1.1-17C516.5,60,512.5,56.7,509.2,56.8z"/>
		<path class="st11" d="M514.9,81.1c-0.9-0.3-1.7-0.6-2.5-1.2c-1.5-1.3-2.5-1.6-4.4-1.6c-1.7,0-3.4,0-4.9-1
			c-1.3-0.9-2.1-2.8-1.8-4.4c0.2-1.1,0.6-2,1.3-2.9c1-1.3,1.2-2.2,0.8-3.8c-0.4-1.9-0.5-3.6,0.1-5.5c0.3-1,1-1.7,1.8-2.4
			c-0.7,0.3-1.4,0.8-2,1.2c-2.5,1.9-5.1,7.6-5.6,11.7c-0.5,4.1-1.5,7.2,0,9.3c1.5,2.1,6.5,2.5,10.8,2.9c4.3,0.4,10.2-0.6,11.4-2.1
			c0.2-0.3,0.4-0.9,0.5-1.9C519,80.9,517,81.8,514.9,81.1z"/>
		<path class="st32" d="M508.8,57.7c0,0-3.6-0.9-4.1-3.6c-0.5-2.7,0.9-3.7,2-3c1.1,0.6,1.3,0.3,2-0.2c0.8-0.5,1.9,0.3,2.4,1.1
			c0.6,0.8,0.7-0.1,2-0.2c1.3-0.1,1.8,1.1,1.1,2.7C513.6,56,512.9,57.7,508.8,57.7z"/>
		<g>
			<path class="st11" d="M512.7,56.1c-0.9,0.2-0.4-1-0.5-1.4c-0.2,0-0.3,0.4-0.4,0.6c-0.2,0.4-0.6,0.6-1,0.6c-0.6,0-0.7-0.6-0.9-1
				c-0.1-0.2-0.2-0.2-0.2,0c-0.1,0.2,0,0.5-0.2,0.6c-0.4,0.3-1,0-1.3-0.3c-0.3-0.3-0.4-0.7-0.8-1c-0.1,0.1-0.1,0.1-0.1,0.2
				c-0.1,0.4-0.1,1.1-0.7,1c-0.5-0.1-0.9-1-1.1-1.5c-0.2-0.5-0.4-1.1-0.4-1.7c0-0.2,0-0.5,0-0.7c0-0.1,0.1-0.4,0.1-0.5l0,0
				c-0.5,0.5-0.8,1.4-0.6,2.9c0.4,2.3,3.1,3.3,3.9,3.5c0.1,0,0.3,0.1,0.4,0.1c3.3,0,4.3-1.1,4.9-2.4c0,0,0,0,0,0
				C513.9,55.3,513,56.1,512.7,56.1z"/>
		</g>
		<g>
			<g>
				<path class="st36" d="M510.3,65.8c1.8,0.2,3.4,1,3.3,2.7l-2.9-0.1c0-0.7-0.7-0.8-1.1-0.8c-0.3,0-1.1,0-1.2,0.5
					c0,1.2,5.4,0,5.4,3.5c0,2.1-1.7,2.8-3.6,2.9l0.1,2.2l-1.8,0l0.2-2.2c-1.8-0.2-3.5-1.1-3.5-3l2.9,0.1l0,0.1c0,0.8,0.9,1,1.4,1
					c0.4,0,1.3,0,1.3-0.6c0-1.3-5.4-0.2-5.4-3.5c0-1.9,1.5-2.6,3.4-2.7l-0.1-2.2l1.8,0L510.3,65.8z"/>
			</g>
		</g>
		<path class="st35" d="M506.1,56.4l-0.3,1.7c0,0,0.9,0.9,3.4,0.9s3.9-0.9,3.9-0.9l-0.2-1.5C512.9,56.5,509.5,57.4,506.1,56.4z"/>
	</g>
	<g>
		<polygon class="st33" points="115.2,377.2 104.4,377.2 105.3,364.2 114.3,364.2 		"/>
		<path class="st33" d="M116.6,375.1c-0.1-0.2-0.4-0.3-0.6-0.3h-6h-0.5h-6c-0.2,0-0.5,0.1-0.6,0.3l-1.6,2.4c-0.3,0.5,0,1.1,0.6,1.1
			h7.6h0.5h7.6c0.6,0,0.9-0.6,0.6-1.1L116.6,375.1z"/>
		<path class="st33" d="M136.3,367.6h-53c-1.7,0-3-1.4-3-3V331c0-1.7,1.4-3,3-3h53c1.7,0,3,1.4,3,3v33.5
			C139.4,366.3,138,367.6,136.3,367.6z"/>
		<rect x="82.9" y="330.6" class="st35" width="53.7" height="34"/>
		<path class="st33" d="M91.7,347.6c0,0,16.9,21.3,36.1,0C108.6,326.3,91.7,347.6,91.7,347.6z"/>
		<path class="st20" d="M94.3,347.6c0,0,14.5,18.3,31.1,0C108.8,329.3,94.3,347.6,94.3,347.6z"/>
		<circle class="st32" cx="109.8" cy="347.6" r="8"/>
		<circle class="st33" cx="109.8" cy="347.6" r="5.1"/>
		<circle class="st20" cx="113.7" cy="344.4" r="2.1"/>
	</g>
</g>
</svg>
