<?xml version="1.0" encoding="utf-8"?>
<!-- Generator: Adobe Illustrator 19.2.0, SVG Export Plug-In . SVG Version: 6.00 Build 0)  -->
<svg version="1.1" id="Layer_1" xmlns="http://www.w3.org/2000/svg" xmlns:xlink="http://www.w3.org/1999/xlink" x="0px" y="0px"
	 viewBox="0 0 557.7 437.8" style="enable-background:new 0 0 557.7 437.8;" xml:space="preserve">
<style type="text/css">
	.st0{fill:none;stroke:#FFEDD2;stroke-width:7.3117;stroke-linecap:round;stroke-linejoin:round;stroke-miterlimit:10;}
	.st1{fill:none;stroke:#FFEDD2;stroke-width:7.3117;stroke-miterlimit:10;}
</style>
<g>
	
		<rect x="400.5" y="6.8" transform="matrix(0.7071 -0.7071 0.7071 0.7071 51.8513 344.3537)" class="st0" width="82.2" height="205.5"/>
	
		<rect x="74" y="9.9" transform="matrix(0.7071 0.7071 -0.7071 0.7071 113.3484 -48.3699)" class="st0" width="82.2" height="205.5"/>
	<path class="st0" d="M94.7,310.4l-2.9-3c-7.6-7.9-7.3-20.4,0.5-28l33.6-32.3c7.9-7.6,20.4-7.3,28,0.5l2.9,3
		c7.6,7.9,7.3,20.4-0.5,28L122.6,311C114.7,318.6,102.2,318.3,94.7,310.4z"/>
	<path class="st0" d="M131.3,348.5l-2.9-3c-7.6-7.9-7.3-20.4,0.5-28l33.6-32.3c7.9-7.6,20.4-7.3,28,0.5l2.9,3
		c7.6,7.9,7.3,20.4-0.5,28L159.2,349C151.3,356.6,138.8,356.3,131.3,348.5z"/>
	<path class="st0" d="M168.3,387l-2.9-3c-7.6-7.9-7.3-20.4,0.5-28l33.6-32.3c7.9-7.6,20.4-7.3,28,0.5l2.9,3c7.6,7.9,7.3,20.4-0.5,28
		l-33.6,32.3C188.4,395.1,175.9,394.8,168.3,387z"/>
	<path class="st1" d="M205.1,425.1l-2.9-3c-7.6-7.9-7.3-20.4,0.5-28l33.6-32.3c7.9-7.6,20.4-7.3,28,0.5l2.9,3
		c7.6,7.9,7.3,20.4-0.5,28L233,425.7C225.2,433.2,212.6,433,205.1,425.1z"/>
	<path class="st0" d="M353.6,89.5l-110.8,0.8l-69.1,68.1c-6,42.8,13.9,52.7,46.7,45.9l51.8-53.4l26.3,23.1l75.8-1.6"/>
	<line class="st0" x1="76.4" y1="212" x2="118.8" y2="253.9"/>
	<line class="st0" x1="414.3" y1="244" x2="466.5" y2="192.6"/>
	<line class="st0" x1="59.5" y1="171.7" x2="77" y2="155"/>
	<path class="st0" d="M306,375.3c-27.7-27.2-55.4-54.5-83.1-81.7"/>
	<path class="st0" d="M259.7,406.4c8.3,14.4,29.4,20.9,43,9.7c11.6-9.5,13.1-29.2,3.2-40.4"/>
	<path class="st0" d="M306,375.3c9.7,9,25.8,10.8,36.8,3.1c12.3-8.6,12.3-25.3,5-37.3"/>
	<path class="st0" d="M388.5,300.7c-26.3-28.4-62.6-61.7-90.2-88.8"/>
	<path class="st0" d="M349.8,340.8c-26.3-28.4-62.6-61.7-90.2-88.8"/>
	<path class="st0" d="M349.8,339.7c10.2,7.4,25.3,7.7,35.3-0.2c12.6-9.9,10.3-26.9,2.1-38.9"/>
	<path class="st0" d="M388.3,299.7c15.1,13.9,43,8.7,46.8-13.2c2.5-14.3-8-26-17.2-35.5c-11.7-12-24-23.4-36-35.2
		c-14.2-13.9-28.3-27.8-42.4-41.7"/>
	<line class="st0" x1="203.9" y1="81.9" x2="224.6" y2="100.7"/>
</g>
</svg>
