<?xml version="1.0" encoding="utf-8"?>
<!-- Generator: Adobe Illustrator 19.2.0, SVG Export Plug-In . SVG Version: 6.00 Build 0)  -->
<svg version="1.1" id="Layer_1" xmlns="http://www.w3.org/2000/svg" xmlns:xlink="http://www.w3.org/1999/xlink" x="0px" y="0px"
	 viewBox="0 0 429.4 433.2" style="enable-background:new 0 0 429.4 433.2;" xml:space="preserve">
<style type="text/css">
	.st0{fill:none;stroke:#FFEDD2;stroke-width:3;stroke-miterlimit:10;}
	.st1{fill:none;stroke:#FFEDD2;stroke-width:4.1274;stroke-miterlimit:10;}
	.st2{fill:none;stroke:#FFEDD2;stroke-width:20.6676;stroke-miterlimit:10;}
	.st3{fill:#FFEDD2;}
	.st4{fill:none;stroke:#FFEDD2;stroke-width:9;stroke-miterlimit:10;}
</style>
<g>
	<polyline class="st0" points="303.6,55.8 303.6,26.3 27.6,26.3 27.6,392.3 277.8,392.3 303.6,392.3 303.6,306.9 303.6,299.4 
		303.6,273.8 303.6,241.8 	"/>
	<line class="st0" x1="120.1" y1="85.3" x2="63.1" y2="85.3"/>
	<line class="st0" x1="96.1" y1="121.3" x2="63.1" y2="121.3"/>
	<line class="st0" x1="96.1" y1="154.3" x2="63.1" y2="154.3"/>
	<line class="st0" x1="102.1" y1="193.3" x2="63.1" y2="193.3"/>
	<line class="st0" x1="126.1" y1="228.3" x2="63.1" y2="228.3"/>
	<line class="st0" x1="182.1" y1="260.3" x2="63.1" y2="260.3"/>
	<line class="st0" x1="236.1" y1="299.3" x2="63.1" y2="299.3"/>
	<line class="st1" x1="63.6" y1="332" x2="268" y2="332"/>
	
		<ellipse transform="matrix(0.8164 -0.5775 0.5775 0.8164 -46.557 152.1473)" class="st2" cx="216" cy="149.3" rx="122.2" ry="122.2"/>
	<path class="st3" d="M404.6,403.7l-11.5,8.2c-9.5,6.7-22.6,4.5-29.3-5l-69.7-98.5l45.9-32.4l69.7,98.5
		C416.3,383.9,414.1,397,404.6,403.7z"/>
	<path class="st3" d="M338.5,265.1L287,301.5c-5.4,3.8-13,2.6-16.8-2.9l0,0c-3.8-5.4-2.6-13,2.9-16.8l51.5-36.4
		c5.4-3.8,13-2.6,16.8,2.9l0,0C345.3,253.7,344,261.2,338.5,265.1z"/>
	<line class="st4" x1="308.1" y1="94.3" x2="132.1" y2="94.3"/>
	<line class="st4" x1="308.1" y1="120.3" x2="132.1" y2="120.3"/>
	<line class="st4" x1="308.1" y1="148.3" x2="132.1" y2="148.3"/>
	<line class="st4" x1="308.1" y1="174.3" x2="132.1" y2="174.3"/>
	<line class="st4" x1="308.1" y1="201.3" x2="132.1" y2="201.3"/>
</g>
</svg>
