<?xml version="1.0" encoding="utf-8"?>
<!-- Generator: Adobe Illustrator 19.2.0, SVG Export Plug-In . SVG Version: 6.00 Build 0)  -->
<svg version="1.1" id="Layer_1" xmlns="http://www.w3.org/2000/svg" xmlns:xlink="http://www.w3.org/1999/xlink" x="0px" y="0px"
	 viewBox="0 0 370.5 398.2" style="enable-background:new 0 0 370.5 398.2;" xml:space="preserve">
<style type="text/css">
	.st0{fill:none;stroke:#FFEDD2;stroke-width:7.9482;stroke-miterlimit:10;}
	.st1{fill:#FFEDD2;}
	.st2{fill:#091825;stroke:#FFEDD2;stroke-width:2.9806;stroke-miterlimit:10;}
	.st3{fill:none;stroke:#FFEDD2;stroke-width:2.9806;stroke-miterlimit:10;}
	.st4{fill:none;stroke:#FFEDD2;stroke-width:2.9806;stroke-linecap:round;stroke-miterlimit:10;}
</style>
<g>
	<circle class="st0" cx="181.7" cy="229.8" r="156"/>
	<path class="st1" d="M197.3,50.5H166c-8.6,0-15.6-7-15.6-15.6v-0.5c0-8.6,7-15.6,15.6-15.6h31.3c8.6,0,15.6,7,15.6,15.6v0.5
		C213,43.6,206,50.5,197.3,50.5z"/>
	<rect x="166" y="49.1" class="st1" width="30.3" height="21.6"/>
	<path class="st1" d="M324.8,132.4l-13.3-17.4c-3.7-4.8-2.8-11.6,2-15.3l0.3-0.2c4.8-3.7,11.6-2.8,15.3,2l13.3,17.4
		c3.7,4.8,2.8,11.6-2,15.3l-0.3,0.2C335.3,138.1,328.5,137.2,324.8,132.4z"/>
	
		<rect x="302.7" y="120.5" transform="matrix(0.6093 0.793 -0.793 0.6093 223.9741 -198.416)" class="st1" width="21.2" height="15.1"/>
	<path class="st2" d="M181.7,102.9c70.1,0,126.9,56.8,126.9,126.9H181.7"/>
	<line class="st3" x1="308.6" y1="229.8" x2="181.7" y2="229.8"/>
	<circle class="st1" cx="181.7" cy="229.2" r="26.8"/>
	<line class="st4" x1="181.7" y1="102.9" x2="181.7" y2="124.2"/>
	<line class="st4" x1="181.7" y1="337.9" x2="181.7" y2="359.1"/>
	<line class="st4" x1="106.1" y1="306.6" x2="91.1" y2="321.6"/>
	<line class="st4" x1="74.8" y1="231" x2="53.6" y2="231"/>
	<line class="st4" x1="272.2" y1="321.6" x2="257.2" y2="306.6"/>
	<line class="st4" x1="106.1" y1="155.5" x2="91.1" y2="140.5"/>
	<line class="st4" x1="272.2" y1="321.6" x2="257.2" y2="306.6"/>
	<line class="st4" x1="106.1" y1="155.5" x2="91.1" y2="140.5"/>
	<line class="st4" x1="181.7" y1="102.9" x2="181.7" y2="124.2"/>
	<line class="st4" x1="181.7" y1="337.9" x2="181.7" y2="359.1"/>
	<line class="st4" x1="106.1" y1="306.6" x2="91.1" y2="321.6"/>
	<line class="st4" x1="74.8" y1="231" x2="53.6" y2="231"/>
	<line class="st4" x1="272.2" y1="321.6" x2="257.2" y2="306.6"/>
	<line class="st4" x1="106.1" y1="155.5" x2="91.1" y2="140.5"/>
</g>
</svg>
